<svg xmlns="http://www.w3.org/2000/svg" viewBox="0 0 480 360" width="480" height="360" role="img" aria-label="Macadamia, Honey">
<rect width="480" height="360" fill="#F8E2A8"/>
<circle cx="78" cy="70" r="120" fill="#FFFFFF" fill-opacity=".28"/>
<circle cx="430" cy="300" r="90" fill="#FFFFFF" fill-opacity=".18"/>

<g transform="translate(240,326)">
  <ellipse cx="0" cy="2" rx="112" ry="10" fill="#2A1D14" fill-opacity=".12"/>
  <clipPath id="jarclip"><rect x="-96" y="-206" width="192" height="206" rx="26"/></clipPath>
  <rect x="-96" y="-206" width="192" height="206" rx="26" fill="#FFFDF9"/>
  <g clip-path="url(#jarclip)"><g transform="translate(-74.1,-24.7) rotate(41) scale(0.95)"><circle r="16" fill="#F0D79C" stroke="#2A1D14" stroke-width="2.2" stroke-linejoin="round" stroke-linecap="round"/><path d="M-9,4 C-6,10 2,12 8,8" fill="none" stroke="#2A1D14" stroke-opacity=".25" stroke-width="1.5" stroke-linecap="round"/><circle cx="2" cy="-2" r="2" fill="#2A1D14" fill-opacity=".18"/><ellipse cx="-6" cy="-7" rx="4.5" ry="3" fill="#fff" fill-opacity=".6"/></g><g transform="translate(-43.2,-22.0) rotate(336) scale(0.95)"><circle r="16" fill="#F0D79C" stroke="#2A1D14" stroke-width="2.2" stroke-linejoin="round" stroke-linecap="round"/><path d="M-9,4 C-6,10 2,12 8,8" fill="none" stroke="#2A1D14" stroke-opacity=".25" stroke-width="1.5" stroke-linecap="round"/><circle cx="2" cy="-2" r="2" fill="#2A1D14" fill-opacity=".18"/><ellipse cx="-6" cy="-7" rx="4.5" ry="3" fill="#fff" fill-opacity=".6"/></g><g transform="translate(-18.7,-22.9) rotate(334) scale(0.95)"><circle r="16" fill="#F0D79C" stroke="#2A1D14" stroke-width="2.2" stroke-linejoin="round" stroke-linecap="round"/><path d="M-9,4 C-6,10 2,12 8,8" fill="none" stroke="#2A1D14" stroke-opacity=".25" stroke-width="1.5" stroke-linecap="round"/><circle cx="2" cy="-2" r="2" fill="#2A1D14" fill-opacity=".18"/><ellipse cx="-6" cy="-7" rx="4.5" ry="3" fill="#fff" fill-opacity=".6"/></g><g transform="translate(17.9,-21.8) rotate(328) scale(0.95)"><circle r="16" fill="#F0D79C" stroke="#2A1D14" stroke-width="2.2" stroke-linejoin="round" stroke-linecap="round"/><path d="M-9,4 C-6,10 2,12 8,8" fill="none" stroke="#2A1D14" stroke-opacity=".25" stroke-width="1.5" stroke-linecap="round"/><circle cx="2" cy="-2" r="2" fill="#2A1D14" fill-opacity=".18"/><ellipse cx="-6" cy="-7" rx="4.5" ry="3" fill="#fff" fill-opacity=".6"/></g><g transform="translate(47.6,-23.2) rotate(176) scale(0.95)"><circle r="16" fill="#F0D79C" stroke="#2A1D14" stroke-width="2.2" stroke-linejoin="round" stroke-linecap="round"/><path d="M-9,4 C-6,10 2,12 8,8" fill="none" stroke="#2A1D14" stroke-opacity=".25" stroke-width="1.5" stroke-linecap="round"/><circle cx="2" cy="-2" r="2" fill="#2A1D14" fill-opacity=".18"/><ellipse cx="-6" cy="-7" rx="4.5" ry="3" fill="#fff" fill-opacity=".6"/></g><g transform="translate(76.4,-25.1) rotate(46) scale(0.95)"><circle r="16" fill="#F0D79C" stroke="#2A1D14" stroke-width="2.2" stroke-linejoin="round" stroke-linecap="round"/><path d="M-9,4 C-6,10 2,12 8,8" fill="none" stroke="#2A1D14" stroke-opacity=".25" stroke-width="1.5" stroke-linecap="round"/><circle cx="2" cy="-2" r="2" fill="#2A1D14" fill-opacity=".18"/><ellipse cx="-6" cy="-7" rx="4.5" ry="3" fill="#fff" fill-opacity=".6"/></g><g transform="translate(-66.3,-53.3) rotate(285) scale(0.95)"><circle r="16" fill="#F0D79C" stroke="#2A1D14" stroke-width="2.2" stroke-linejoin="round" stroke-linecap="round"/><path d="M-9,4 C-6,10 2,12 8,8" fill="none" stroke="#2A1D14" stroke-opacity=".25" stroke-width="1.5" stroke-linecap="round"/><circle cx="2" cy="-2" r="2" fill="#2A1D14" fill-opacity=".18"/><ellipse cx="-6" cy="-7" rx="4.5" ry="3" fill="#fff" fill-opacity=".6"/></g><g transform="translate(-30.4,-50.2) rotate(78) scale(0.95)"><circle r="16" fill="#F0D79C" stroke="#2A1D14" stroke-width="2.2" stroke-linejoin="round" stroke-linecap="round"/><path d="M-9,4 C-6,10 2,12 8,8" fill="none" stroke="#2A1D14" stroke-opacity=".25" stroke-width="1.5" stroke-linecap="round"/><circle cx="2" cy="-2" r="2" fill="#2A1D14" fill-opacity=".18"/><ellipse cx="-6" cy="-7" rx="4.5" ry="3" fill="#fff" fill-opacity=".6"/></g><g transform="translate(-1.3,-50.5) rotate(349) scale(0.95)"><circle r="16" fill="#F0D79C" stroke="#2A1D14" stroke-width="2.2" stroke-linejoin="round" stroke-linecap="round"/><path d="M-9,4 C-6,10 2,12 8,8" fill="none" stroke="#2A1D14" stroke-opacity=".25" stroke-width="1.5" stroke-linecap="round"/><circle cx="2" cy="-2" r="2" fill="#2A1D14" fill-opacity=".18"/><ellipse cx="-6" cy="-7" rx="4.5" ry="3" fill="#fff" fill-opacity=".6"/></g><g transform="translate(28.7,-52.7) rotate(190) scale(0.95)"><circle r="16" fill="#F0D79C" stroke="#2A1D14" stroke-width="2.2" stroke-linejoin="round" stroke-linecap="round"/><path d="M-9,4 C-6,10 2,12 8,8" fill="none" stroke="#2A1D14" stroke-opacity=".25" stroke-width="1.5" stroke-linecap="round"/><circle cx="2" cy="-2" r="2" fill="#2A1D14" fill-opacity=".18"/><ellipse cx="-6" cy="-7" rx="4.5" ry="3" fill="#fff" fill-opacity=".6"/></g><g transform="translate(63.9,-50.4) rotate(165) scale(0.95)"><circle r="16" fill="#F0D79C" stroke="#2A1D14" stroke-width="2.2" stroke-linejoin="round" stroke-linecap="round"/><path d="M-9,4 C-6,10 2,12 8,8" fill="none" stroke="#2A1D14" stroke-opacity=".25" stroke-width="1.5" stroke-linecap="round"/><circle cx="2" cy="-2" r="2" fill="#2A1D14" fill-opacity=".18"/><ellipse cx="-6" cy="-7" rx="4.5" ry="3" fill="#fff" fill-opacity=".6"/></g><g transform="translate(91.4,-53.9) rotate(253) scale(0.95)"><circle r="16" fill="#F0D79C" stroke="#2A1D14" stroke-width="2.2" stroke-linejoin="round" stroke-linecap="round"/><path d="M-9,4 C-6,10 2,12 8,8" fill="none" stroke="#2A1D14" stroke-opacity=".25" stroke-width="1.5" stroke-linecap="round"/><circle cx="2" cy="-2" r="2" fill="#2A1D14" fill-opacity=".18"/><ellipse cx="-6" cy="-7" rx="4.5" ry="3" fill="#fff" fill-opacity=".6"/></g><g transform="translate(-81.5,-77.4) rotate(64) scale(0.95)"><circle r="16" fill="#F0D79C" stroke="#2A1D14" stroke-width="2.2" stroke-linejoin="round" stroke-linecap="round"/><path d="M-9,4 C-6,10 2,12 8,8" fill="none" stroke="#2A1D14" stroke-opacity=".25" stroke-width="1.5" stroke-linecap="round"/><circle cx="2" cy="-2" r="2" fill="#2A1D14" fill-opacity=".18"/><ellipse cx="-6" cy="-7" rx="4.5" ry="3" fill="#fff" fill-opacity=".6"/></g><g transform="translate(-44.5,-75.5) rotate(306) scale(0.95)"><circle r="16" fill="#F0D79C" stroke="#2A1D14" stroke-width="2.2" stroke-linejoin="round" stroke-linecap="round"/><path d="M-9,4 C-6,10 2,12 8,8" fill="none" stroke="#2A1D14" stroke-opacity=".25" stroke-width="1.5" stroke-linecap="round"/><circle cx="2" cy="-2" r="2" fill="#2A1D14" fill-opacity=".18"/><ellipse cx="-6" cy="-7" rx="4.5" ry="3" fill="#fff" fill-opacity=".6"/></g><g transform="translate(-14.2,-78.4) rotate(263) scale(0.95)"><circle r="16" fill="#F0D79C" stroke="#2A1D14" stroke-width="2.2" stroke-linejoin="round" stroke-linecap="round"/><path d="M-9,4 C-6,10 2,12 8,8" fill="none" stroke="#2A1D14" stroke-opacity=".25" stroke-width="1.5" stroke-linecap="round"/><circle cx="2" cy="-2" r="2" fill="#2A1D14" fill-opacity=".18"/><ellipse cx="-6" cy="-7" rx="4.5" ry="3" fill="#fff" fill-opacity=".6"/></g><g transform="translate(11.6,-76.5) rotate(162) scale(0.95)"><circle r="16" fill="#F0D79C" stroke="#2A1D14" stroke-width="2.2" stroke-linejoin="round" stroke-linecap="round"/><path d="M-9,4 C-6,10 2,12 8,8" fill="none" stroke="#2A1D14" stroke-opacity=".25" stroke-width="1.5" stroke-linecap="round"/><circle cx="2" cy="-2" r="2" fill="#2A1D14" fill-opacity=".18"/><ellipse cx="-6" cy="-7" rx="4.5" ry="3" fill="#fff" fill-opacity=".6"/></g><g transform="translate(43.6,-75.3) rotate(163) scale(0.95)"><circle r="16" fill="#F0D79C" stroke="#2A1D14" stroke-width="2.2" stroke-linejoin="round" stroke-linecap="round"/><path d="M-9,4 C-6,10 2,12 8,8" fill="none" stroke="#2A1D14" stroke-opacity=".25" stroke-width="1.5" stroke-linecap="round"/><circle cx="2" cy="-2" r="2" fill="#2A1D14" fill-opacity=".18"/><ellipse cx="-6" cy="-7" rx="4.5" ry="3" fill="#fff" fill-opacity=".6"/></g><g transform="translate(73.7,-79.2) rotate(158) scale(0.95)"><circle r="16" fill="#F0D79C" stroke="#2A1D14" stroke-width="2.2" stroke-linejoin="round" stroke-linecap="round"/><path d="M-9,4 C-6,10 2,12 8,8" fill="none" stroke="#2A1D14" stroke-opacity=".25" stroke-width="1.5" stroke-linecap="round"/><circle cx="2" cy="-2" r="2" fill="#2A1D14" fill-opacity=".18"/><ellipse cx="-6" cy="-7" rx="4.5" ry="3" fill="#fff" fill-opacity=".6"/></g><g transform="translate(-65.7,-103.6) rotate(285) scale(0.95)"><circle r="16" fill="#F0D79C" stroke="#2A1D14" stroke-width="2.2" stroke-linejoin="round" stroke-linecap="round"/><path d="M-9,4 C-6,10 2,12 8,8" fill="none" stroke="#2A1D14" stroke-opacity=".25" stroke-width="1.5" stroke-linecap="round"/><circle cx="2" cy="-2" r="2" fill="#2A1D14" fill-opacity=".18"/><ellipse cx="-6" cy="-7" rx="4.5" ry="3" fill="#fff" fill-opacity=".6"/></g><g transform="translate(-29.4,-103.1) rotate(102) scale(0.95)"><circle r="16" fill="#F0D79C" stroke="#2A1D14" stroke-width="2.2" stroke-linejoin="round" stroke-linecap="round"/><path d="M-9,4 C-6,10 2,12 8,8" fill="none" stroke="#2A1D14" stroke-opacity=".25" stroke-width="1.5" stroke-linecap="round"/><circle cx="2" cy="-2" r="2" fill="#2A1D14" fill-opacity=".18"/><ellipse cx="-6" cy="-7" rx="4.5" ry="3" fill="#fff" fill-opacity=".6"/></g><g transform="translate(-2.7,-107.2) rotate(4) scale(0.95)"><circle r="16" fill="#F0D79C" stroke="#2A1D14" stroke-width="2.2" stroke-linejoin="round" stroke-linecap="round"/><path d="M-9,4 C-6,10 2,12 8,8" fill="none" stroke="#2A1D14" stroke-opacity=".25" stroke-width="1.5" stroke-linecap="round"/><circle cx="2" cy="-2" r="2" fill="#2A1D14" fill-opacity=".18"/><ellipse cx="-6" cy="-7" rx="4.5" ry="3" fill="#fff" fill-opacity=".6"/></g><g transform="translate(30.6,-103.4) rotate(61) scale(0.95)"><circle r="16" fill="#F0D79C" stroke="#2A1D14" stroke-width="2.2" stroke-linejoin="round" stroke-linecap="round"/><path d="M-9,4 C-6,10 2,12 8,8" fill="none" stroke="#2A1D14" stroke-opacity=".25" stroke-width="1.5" stroke-linecap="round"/><circle cx="2" cy="-2" r="2" fill="#2A1D14" fill-opacity=".18"/><ellipse cx="-6" cy="-7" rx="4.5" ry="3" fill="#fff" fill-opacity=".6"/></g><g transform="translate(63.2,-104.8) rotate(243) scale(0.95)"><circle r="16" fill="#F0D79C" stroke="#2A1D14" stroke-width="2.2" stroke-linejoin="round" stroke-linecap="round"/><path d="M-9,4 C-6,10 2,12 8,8" fill="none" stroke="#2A1D14" stroke-opacity=".25" stroke-width="1.5" stroke-linecap="round"/><circle cx="2" cy="-2" r="2" fill="#2A1D14" fill-opacity=".18"/><ellipse cx="-6" cy="-7" rx="4.5" ry="3" fill="#fff" fill-opacity=".6"/></g><g transform="translate(93.9,-104.3) rotate(149) scale(0.95)"><circle r="16" fill="#F0D79C" stroke="#2A1D14" stroke-width="2.2" stroke-linejoin="round" stroke-linecap="round"/><path d="M-9,4 C-6,10 2,12 8,8" fill="none" stroke="#2A1D14" stroke-opacity=".25" stroke-width="1.5" stroke-linecap="round"/><circle cx="2" cy="-2" r="2" fill="#2A1D14" fill-opacity=".18"/><ellipse cx="-6" cy="-7" rx="4.5" ry="3" fill="#fff" fill-opacity=".6"/></g><g transform="translate(-74.1,-134.7) rotate(67) scale(0.95)"><circle r="16" fill="#F0D79C" stroke="#2A1D14" stroke-width="2.2" stroke-linejoin="round" stroke-linecap="round"/><path d="M-9,4 C-6,10 2,12 8,8" fill="none" stroke="#2A1D14" stroke-opacity=".25" stroke-width="1.5" stroke-linecap="round"/><circle cx="2" cy="-2" r="2" fill="#2A1D14" fill-opacity=".18"/><ellipse cx="-6" cy="-7" rx="4.5" ry="3" fill="#fff" fill-opacity=".6"/></g><g transform="translate(-43.9,-130.9) rotate(56) scale(0.95)"><circle r="16" fill="#F0D79C" stroke="#2A1D14" stroke-width="2.2" stroke-linejoin="round" stroke-linecap="round"/><path d="M-9,4 C-6,10 2,12 8,8" fill="none" stroke="#2A1D14" stroke-opacity=".25" stroke-width="1.5" stroke-linecap="round"/><circle cx="2" cy="-2" r="2" fill="#2A1D14" fill-opacity=".18"/><ellipse cx="-6" cy="-7" rx="4.5" ry="3" fill="#fff" fill-opacity=".6"/></g><g transform="translate(-12.3,-134.0) rotate(328) scale(0.95)"><circle r="16" fill="#F0D79C" stroke="#2A1D14" stroke-width="2.2" stroke-linejoin="round" stroke-linecap="round"/><path d="M-9,4 C-6,10 2,12 8,8" fill="none" stroke="#2A1D14" stroke-opacity=".25" stroke-width="1.5" stroke-linecap="round"/><circle cx="2" cy="-2" r="2" fill="#2A1D14" fill-opacity=".18"/><ellipse cx="-6" cy="-7" rx="4.5" ry="3" fill="#fff" fill-opacity=".6"/></g><g transform="translate(15.5,-133.3) rotate(221) scale(0.95)"><circle r="16" fill="#F0D79C" stroke="#2A1D14" stroke-width="2.2" stroke-linejoin="round" stroke-linecap="round"/><path d="M-9,4 C-6,10 2,12 8,8" fill="none" stroke="#2A1D14" stroke-opacity=".25" stroke-width="1.5" stroke-linecap="round"/><circle cx="2" cy="-2" r="2" fill="#2A1D14" fill-opacity=".18"/><ellipse cx="-6" cy="-7" rx="4.5" ry="3" fill="#fff" fill-opacity=".6"/></g><g transform="translate(42.5,-131.4) rotate(146) scale(0.95)"><circle r="16" fill="#F0D79C" stroke="#2A1D14" stroke-width="2.2" stroke-linejoin="round" stroke-linecap="round"/><path d="M-9,4 C-6,10 2,12 8,8" fill="none" stroke="#2A1D14" stroke-opacity=".25" stroke-width="1.5" stroke-linecap="round"/><circle cx="2" cy="-2" r="2" fill="#2A1D14" fill-opacity=".18"/><ellipse cx="-6" cy="-7" rx="4.5" ry="3" fill="#fff" fill-opacity=".6"/></g><g transform="translate(78.0,-129.9) rotate(259) scale(0.95)"><circle r="16" fill="#F0D79C" stroke="#2A1D14" stroke-width="2.2" stroke-linejoin="round" stroke-linecap="round"/><path d="M-9,4 C-6,10 2,12 8,8" fill="none" stroke="#2A1D14" stroke-opacity=".25" stroke-width="1.5" stroke-linecap="round"/><circle cx="2" cy="-2" r="2" fill="#2A1D14" fill-opacity=".18"/><ellipse cx="-6" cy="-7" rx="4.5" ry="3" fill="#fff" fill-opacity=".6"/></g><g transform="translate(-61.4,-157.5) rotate(30) scale(0.95)"><circle r="16" fill="#F0D79C" stroke="#2A1D14" stroke-width="2.2" stroke-linejoin="round" stroke-linecap="round"/><path d="M-9,4 C-6,10 2,12 8,8" fill="none" stroke="#2A1D14" stroke-opacity=".25" stroke-width="1.5" stroke-linecap="round"/><circle cx="2" cy="-2" r="2" fill="#2A1D14" fill-opacity=".18"/><ellipse cx="-6" cy="-7" rx="4.5" ry="3" fill="#fff" fill-opacity=".6"/></g><g transform="translate(-34.2,-161.0) rotate(277) scale(0.95)"><circle r="16" fill="#F0D79C" stroke="#2A1D14" stroke-width="2.2" stroke-linejoin="round" stroke-linecap="round"/><path d="M-9,4 C-6,10 2,12 8,8" fill="none" stroke="#2A1D14" stroke-opacity=".25" stroke-width="1.5" stroke-linecap="round"/><circle cx="2" cy="-2" r="2" fill="#2A1D14" fill-opacity=".18"/><ellipse cx="-6" cy="-7" rx="4.5" ry="3" fill="#fff" fill-opacity=".6"/></g><g transform="translate(-0.8,-160.7) rotate(163) scale(0.95)"><circle r="16" fill="#F0D79C" stroke="#2A1D14" stroke-width="2.2" stroke-linejoin="round" stroke-linecap="round"/><path d="M-9,4 C-6,10 2,12 8,8" fill="none" stroke="#2A1D14" stroke-opacity=".25" stroke-width="1.5" stroke-linecap="round"/><circle cx="2" cy="-2" r="2" fill="#2A1D14" fill-opacity=".18"/><ellipse cx="-6" cy="-7" rx="4.5" ry="3" fill="#fff" fill-opacity=".6"/></g><g transform="translate(26.8,-160.6) rotate(327) scale(0.95)"><circle r="16" fill="#F0D79C" stroke="#2A1D14" stroke-width="2.2" stroke-linejoin="round" stroke-linecap="round"/><path d="M-9,4 C-6,10 2,12 8,8" fill="none" stroke="#2A1D14" stroke-opacity=".25" stroke-width="1.5" stroke-linecap="round"/><circle cx="2" cy="-2" r="2" fill="#2A1D14" fill-opacity=".18"/><ellipse cx="-6" cy="-7" rx="4.5" ry="3" fill="#fff" fill-opacity=".6"/></g><g transform="translate(57.2,-161.3) rotate(241) scale(0.95)"><circle r="16" fill="#F0D79C" stroke="#2A1D14" stroke-width="2.2" stroke-linejoin="round" stroke-linecap="round"/><path d="M-9,4 C-6,10 2,12 8,8" fill="none" stroke="#2A1D14" stroke-opacity=".25" stroke-width="1.5" stroke-linecap="round"/><circle cx="2" cy="-2" r="2" fill="#2A1D14" fill-opacity=".18"/><ellipse cx="-6" cy="-7" rx="4.5" ry="3" fill="#fff" fill-opacity=".6"/></g><g transform="translate(96.0,-156.6) rotate(290) scale(0.95)"><circle r="16" fill="#F0D79C" stroke="#2A1D14" stroke-width="2.2" stroke-linejoin="round" stroke-linecap="round"/><path d="M-9,4 C-6,10 2,12 8,8" fill="none" stroke="#2A1D14" stroke-opacity=".25" stroke-width="1.5" stroke-linecap="round"/><circle cx="2" cy="-2" r="2" fill="#2A1D14" fill-opacity=".18"/><ellipse cx="-6" cy="-7" rx="4.5" ry="3" fill="#fff" fill-opacity=".6"/></g><g transform="translate(-80.5,-189.0) rotate(252) scale(0.95)"><circle r="16" fill="#F0D79C" stroke="#2A1D14" stroke-width="2.2" stroke-linejoin="round" stroke-linecap="round"/><path d="M-9,4 C-6,10 2,12 8,8" fill="none" stroke="#2A1D14" stroke-opacity=".25" stroke-width="1.5" stroke-linecap="round"/><circle cx="2" cy="-2" r="2" fill="#2A1D14" fill-opacity=".18"/><ellipse cx="-6" cy="-7" rx="4.5" ry="3" fill="#fff" fill-opacity=".6"/></g><g transform="translate(-45.5,-186.3) rotate(308) scale(0.95)"><circle r="16" fill="#F0D79C" stroke="#2A1D14" stroke-width="2.2" stroke-linejoin="round" stroke-linecap="round"/><path d="M-9,4 C-6,10 2,12 8,8" fill="none" stroke="#2A1D14" stroke-opacity=".25" stroke-width="1.5" stroke-linecap="round"/><circle cx="2" cy="-2" r="2" fill="#2A1D14" fill-opacity=".18"/><ellipse cx="-6" cy="-7" rx="4.5" ry="3" fill="#fff" fill-opacity=".6"/></g><g transform="translate(-13.5,-188.4) rotate(341) scale(0.95)"><circle r="16" fill="#F0D79C" stroke="#2A1D14" stroke-width="2.2" stroke-linejoin="round" stroke-linecap="round"/><path d="M-9,4 C-6,10 2,12 8,8" fill="none" stroke="#2A1D14" stroke-opacity=".25" stroke-width="1.5" stroke-linecap="round"/><circle cx="2" cy="-2" r="2" fill="#2A1D14" fill-opacity=".18"/><ellipse cx="-6" cy="-7" rx="4.5" ry="3" fill="#fff" fill-opacity=".6"/></g><g transform="translate(12.3,-183.4) rotate(348) scale(0.95)"><circle r="16" fill="#F0D79C" stroke="#2A1D14" stroke-width="2.2" stroke-linejoin="round" stroke-linecap="round"/><path d="M-9,4 C-6,10 2,12 8,8" fill="none" stroke="#2A1D14" stroke-opacity=".25" stroke-width="1.5" stroke-linecap="round"/><circle cx="2" cy="-2" r="2" fill="#2A1D14" fill-opacity=".18"/><ellipse cx="-6" cy="-7" rx="4.5" ry="3" fill="#fff" fill-opacity=".6"/></g><g transform="translate(45.5,-188.0) rotate(90) scale(0.95)"><circle r="16" fill="#F0D79C" stroke="#2A1D14" stroke-width="2.2" stroke-linejoin="round" stroke-linecap="round"/><path d="M-9,4 C-6,10 2,12 8,8" fill="none" stroke="#2A1D14" stroke-opacity=".25" stroke-width="1.5" stroke-linecap="round"/><circle cx="2" cy="-2" r="2" fill="#2A1D14" fill-opacity=".18"/><ellipse cx="-6" cy="-7" rx="4.5" ry="3" fill="#fff" fill-opacity=".6"/></g><g transform="translate(77.1,-187.5) rotate(108) scale(0.95)"><circle r="16" fill="#F0D79C" stroke="#2A1D14" stroke-width="2.2" stroke-linejoin="round" stroke-linecap="round"/><path d="M-9,4 C-6,10 2,12 8,8" fill="none" stroke="#2A1D14" stroke-opacity=".25" stroke-width="1.5" stroke-linecap="round"/><circle cx="2" cy="-2" r="2" fill="#2A1D14" fill-opacity=".18"/><ellipse cx="-6" cy="-7" rx="4.5" ry="3" fill="#fff" fill-opacity=".6"/></g></g>
  <rect x="-96" y="-206" width="192" height="206" rx="26" fill="#FFFFFF" fill-opacity=".18" stroke="#2A1D14" stroke-width="3" stroke-linejoin="round" stroke-linecap="round"/>
  <path d="M-78,-186 L-78,-40" stroke="#fff" stroke-opacity=".7" stroke-width="7" stroke-linecap="round"/>
  <rect x="-84" y="-246" width="168" height="44" rx="12" fill="#2F6B5A" stroke="#2A1D14" stroke-width="3" stroke-linejoin="round" stroke-linecap="round"/>
  <path d="M-84,-224 L84,-224" stroke="#235244" stroke-width="10"/>
  <rect x="-84" y="-246" width="168" height="44" rx="12" fill="none" stroke="#2A1D14" stroke-width="3" stroke-linejoin="round" stroke-linecap="round"/>
  <rect x="-70" y="-150" width="140" height="78" rx="14" fill="#FBF5EC" stroke="#2A1D14" stroke-width="2.6" stroke-linejoin="round" stroke-linecap="round"/>
  <rect x="-70" y="-150" width="140" height="20" rx="10" fill="#2F6B5A"/>
  <rect x="-70" y="-140" width="140" height="10" fill="#2F6B5A"/>
  <rect x="-70" y="-150" width="140" height="78" rx="14" fill="none" stroke="#2A1D14" stroke-width="2.6" stroke-linejoin="round" stroke-linecap="round"/>
  <text x="0" y="-135" text-anchor="middle" font-family="'Bricolage Grotesque','DM Sans',sans-serif"
        font-weight="700" font-size="12" letter-spacing="1" fill="#F6C453">C4N</text>
  <g transform="translate(-24,-100) scale(1.05)"><circle r="16" fill="#F0D79C" stroke="#2A1D14" stroke-width="2.2" stroke-linejoin="round" stroke-linecap="round"/><path d="M-9,4 C-6,10 2,12 8,8" fill="none" stroke="#2A1D14" stroke-opacity=".25" stroke-width="1.5" stroke-linecap="round"/><circle cx="2" cy="-2" r="2" fill="#2A1D14" fill-opacity=".18"/><ellipse cx="-6" cy="-7" rx="4.5" ry="3" fill="#fff" fill-opacity=".6"/></g>
  <g transform="translate(26,-100)">
    <circle r="17" fill="#FFFFFF" stroke="#2A1D14" stroke-width="2.2" stroke-linejoin="round" stroke-linecap="round"/>
    <g transform="scale(.85)"><path d="M0,-9 C4,-3 7,1 7,4 A7,7 0 0 1 -7,4 C-7,1 -4,-3 0,-9Z" fill="#F2B533" stroke="#2A1D14" stroke-width="2" stroke-linejoin="round"/></g>
  </g>
</g>
<g transform="translate(94.0,300.8) rotate(29) scale(0.94)"><circle r="16" fill="#F0D79C" stroke="#2A1D14" stroke-width="2.2" stroke-linejoin="round" stroke-linecap="round"/><path d="M-9,4 C-6,10 2,12 8,8" fill="none" stroke="#2A1D14" stroke-opacity=".25" stroke-width="1.5" stroke-linecap="round"/><circle cx="2" cy="-2" r="2" fill="#2A1D14" fill-opacity=".18"/><ellipse cx="-6" cy="-7" rx="4.5" ry="3" fill="#fff" fill-opacity=".6"/></g><g transform="translate(125.2,329.0) rotate(34) scale(1.08)"><circle r="16" fill="#F0D79C" stroke="#2A1D14" stroke-width="2.2" stroke-linejoin="round" stroke-linecap="round"/><path d="M-9,4 C-6,10 2,12 8,8" fill="none" stroke="#2A1D14" stroke-opacity=".25" stroke-width="1.5" stroke-linecap="round"/><circle cx="2" cy="-2" r="2" fill="#2A1D14" fill-opacity=".18"/><ellipse cx="-6" cy="-7" rx="4.5" ry="3" fill="#fff" fill-opacity=".6"/></g><g transform="translate(62.0,336.0) rotate(28) scale(0.92)"><circle r="16" fill="#F0D79C" stroke="#2A1D14" stroke-width="2.2" stroke-linejoin="round" stroke-linecap="round"/><path d="M-9,4 C-6,10 2,12 8,8" fill="none" stroke="#2A1D14" stroke-opacity=".25" stroke-width="1.5" stroke-linecap="round"/><circle cx="2" cy="-2" r="2" fill="#2A1D14" fill-opacity=".18"/><ellipse cx="-6" cy="-7" rx="4.5" ry="3" fill="#fff" fill-opacity=".6"/></g><g transform="translate(388.9,300.2) rotate(8) scale(0.92)"><circle r="16" fill="#F0D79C" stroke="#2A1D14" stroke-width="2.2" stroke-linejoin="round" stroke-linecap="round"/><path d="M-9,4 C-6,10 2,12 8,8" fill="none" stroke="#2A1D14" stroke-opacity=".25" stroke-width="1.5" stroke-linecap="round"/><circle cx="2" cy="-2" r="2" fill="#2A1D14" fill-opacity=".18"/><ellipse cx="-6" cy="-7" rx="4.5" ry="3" fill="#fff" fill-opacity=".6"/></g><g transform="translate(365.1,336.7) rotate(-19) scale(1.03)"><circle r="16" fill="#F0D79C" stroke="#2A1D14" stroke-width="2.2" stroke-linejoin="round" stroke-linecap="round"/><path d="M-9,4 C-6,10 2,12 8,8" fill="none" stroke="#2A1D14" stroke-opacity=".25" stroke-width="1.5" stroke-linecap="round"/><circle cx="2" cy="-2" r="2" fill="#2A1D14" fill-opacity=".18"/><ellipse cx="-6" cy="-7" rx="4.5" ry="3" fill="#fff" fill-opacity=".6"/></g><g transform="translate(419.2,329.3) rotate(-37) scale(0.96)"><circle r="16" fill="#F0D79C" stroke="#2A1D14" stroke-width="2.2" stroke-linejoin="round" stroke-linecap="round"/><path d="M-9,4 C-6,10 2,12 8,8" fill="none" stroke="#2A1D14" stroke-opacity=".25" stroke-width="1.5" stroke-linecap="round"/><circle cx="2" cy="-2" r="2" fill="#2A1D14" fill-opacity=".18"/><ellipse cx="-6" cy="-7" rx="4.5" ry="3" fill="#fff" fill-opacity=".6"/></g>
</svg>
