<svg xmlns="http://www.w3.org/2000/svg" viewBox="0 0 480 360" width="480" height="360" role="img" aria-label="Peanuts, Roasted">
<rect width="480" height="360" fill="#F3D3B5"/>
<circle cx="78" cy="70" r="120" fill="#FFFFFF" fill-opacity=".28"/>
<circle cx="430" cy="300" r="90" fill="#FFFFFF" fill-opacity=".18"/>

<g transform="translate(240,326)">
  <ellipse cx="0" cy="2" rx="112" ry="10" fill="#2A1D14" fill-opacity=".12"/>
  <clipPath id="jarclip"><rect x="-96" y="-206" width="192" height="206" rx="26"/></clipPath>
  <rect x="-96" y="-206" width="192" height="206" rx="26" fill="#FFFDF9"/>
  <g clip-path="url(#jarclip)"><g transform="translate(-78.1,-25.5) rotate(77) scale(0.95)"><path d="M0,-26 C13,-26 15,-13 10,-4 C7,2 15,8 13,17 C11,27 -11,27 -13,17 C-15,8 -7,2 -10,-4 C-15,-13 -13,-26 0,-26Z" fill="#E4C48F" stroke="#2A1D14" stroke-width="2.2" stroke-linejoin="round" stroke-linecap="round"/><g fill="none" stroke="#2A1D14" stroke-opacity=".35" stroke-width="1.4" stroke-linecap="round"><path d="M-6,-18 L-3,-15 M4,-19 L6,-15 M-5,-9 L-2,-11 M5,-8 L2,-11 M-7,11 L-4,14 M5,10 L8,13 M-3,20 L0,18 M6,19 L4,22"/></g></g><g transform="translate(-45.6,-25.1) rotate(183) scale(0.95)"><path d="M0,-26 C13,-26 15,-13 10,-4 C7,2 15,8 13,17 C11,27 -11,27 -13,17 C-15,8 -7,2 -10,-4 C-15,-13 -13,-26 0,-26Z" fill="#E4C48F" stroke="#2A1D14" stroke-width="2.2" stroke-linejoin="round" stroke-linecap="round"/><g fill="none" stroke="#2A1D14" stroke-opacity=".35" stroke-width="1.4" stroke-linecap="round"><path d="M-6,-18 L-3,-15 M4,-19 L6,-15 M-5,-9 L-2,-11 M5,-8 L2,-11 M-7,11 L-4,14 M5,10 L8,13 M-3,20 L0,18 M6,19 L4,22"/></g></g><g transform="translate(-19.5,-21.6) rotate(3) scale(0.95)"><path d="M0,-26 C13,-26 15,-13 10,-4 C7,2 15,8 13,17 C11,27 -11,27 -13,17 C-15,8 -7,2 -10,-4 C-15,-13 -13,-26 0,-26Z" fill="#E4C48F" stroke="#2A1D14" stroke-width="2.2" stroke-linejoin="round" stroke-linecap="round"/><g fill="none" stroke="#2A1D14" stroke-opacity=".35" stroke-width="1.4" stroke-linecap="round"><path d="M-6,-18 L-3,-15 M4,-19 L6,-15 M-5,-9 L-2,-11 M5,-8 L2,-11 M-7,11 L-4,14 M5,10 L8,13 M-3,20 L0,18 M6,19 L4,22"/></g></g><g transform="translate(12.9,-21.4) rotate(181) scale(0.95)"><path d="M0,-26 C13,-26 15,-13 10,-4 C7,2 15,8 13,17 C11,27 -11,27 -13,17 C-15,8 -7,2 -10,-4 C-15,-13 -13,-26 0,-26Z" fill="#E4C48F" stroke="#2A1D14" stroke-width="2.2" stroke-linejoin="round" stroke-linecap="round"/><g fill="none" stroke="#2A1D14" stroke-opacity=".35" stroke-width="1.4" stroke-linecap="round"><path d="M-6,-18 L-3,-15 M4,-19 L6,-15 M-5,-9 L-2,-11 M5,-8 L2,-11 M-7,11 L-4,14 M5,10 L8,13 M-3,20 L0,18 M6,19 L4,22"/></g></g><g transform="translate(48.6,-23.9) rotate(137) scale(0.95)"><path d="M0,-26 C13,-26 15,-13 10,-4 C7,2 15,8 13,17 C11,27 -11,27 -13,17 C-15,8 -7,2 -10,-4 C-15,-13 -13,-26 0,-26Z" fill="#E4C48F" stroke="#2A1D14" stroke-width="2.2" stroke-linejoin="round" stroke-linecap="round"/><g fill="none" stroke="#2A1D14" stroke-opacity=".35" stroke-width="1.4" stroke-linecap="round"><path d="M-6,-18 L-3,-15 M4,-19 L6,-15 M-5,-9 L-2,-11 M5,-8 L2,-11 M-7,11 L-4,14 M5,10 L8,13 M-3,20 L0,18 M6,19 L4,22"/></g></g><g transform="translate(75.3,-21.7) rotate(162) scale(0.95)"><path d="M0,-26 C13,-26 15,-13 10,-4 C7,2 15,8 13,17 C11,27 -11,27 -13,17 C-15,8 -7,2 -10,-4 C-15,-13 -13,-26 0,-26Z" fill="#E4C48F" stroke="#2A1D14" stroke-width="2.2" stroke-linejoin="round" stroke-linecap="round"/><g fill="none" stroke="#2A1D14" stroke-opacity=".35" stroke-width="1.4" stroke-linecap="round"><path d="M-6,-18 L-3,-15 M4,-19 L6,-15 M-5,-9 L-2,-11 M5,-8 L2,-11 M-7,11 L-4,14 M5,10 L8,13 M-3,20 L0,18 M6,19 L4,22"/></g></g><g transform="translate(-63.0,-48.4) rotate(131) scale(0.95)"><ellipse rx="9" ry="13" fill="#E9B97A" stroke="#2A1D14" stroke-width="2" stroke-linejoin="round" stroke-linecap="round"/><path d="M0,-12 L0,12" stroke="#2A1D14" stroke-opacity=".45" stroke-width="1.4"/><ellipse cx="-3" cy="-5" rx="2.2" ry="4" fill="#fff" fill-opacity=".45"/></g><g transform="translate(-33.6,-48.9) rotate(323) scale(0.95)"><ellipse rx="9" ry="13" fill="#E9B97A" stroke="#2A1D14" stroke-width="2" stroke-linejoin="round" stroke-linecap="round"/><path d="M0,-12 L0,12" stroke="#2A1D14" stroke-opacity=".45" stroke-width="1.4"/><ellipse cx="-3" cy="-5" rx="2.2" ry="4" fill="#fff" fill-opacity=".45"/></g><g transform="translate(-4.6,-48.4) rotate(16) scale(0.95)"><ellipse rx="9" ry="13" fill="#E9B97A" stroke="#2A1D14" stroke-width="2" stroke-linejoin="round" stroke-linecap="round"/><path d="M0,-12 L0,12" stroke="#2A1D14" stroke-opacity=".45" stroke-width="1.4"/><ellipse cx="-3" cy="-5" rx="2.2" ry="4" fill="#fff" fill-opacity=".45"/></g><g transform="translate(33.7,-50.9) rotate(3) scale(0.95)"><ellipse rx="9" ry="13" fill="#E9B97A" stroke="#2A1D14" stroke-width="2" stroke-linejoin="round" stroke-linecap="round"/><path d="M0,-12 L0,12" stroke="#2A1D14" stroke-opacity=".45" stroke-width="1.4"/><ellipse cx="-3" cy="-5" rx="2.2" ry="4" fill="#fff" fill-opacity=".45"/></g><g transform="translate(59.1,-49.7) rotate(277) scale(0.95)"><ellipse rx="9" ry="13" fill="#E9B97A" stroke="#2A1D14" stroke-width="2" stroke-linejoin="round" stroke-linecap="round"/><path d="M0,-12 L0,12" stroke="#2A1D14" stroke-opacity=".45" stroke-width="1.4"/><ellipse cx="-3" cy="-5" rx="2.2" ry="4" fill="#fff" fill-opacity=".45"/></g><g transform="translate(91.8,-52.1) rotate(228) scale(0.95)"><path d="M0,-26 C13,-26 15,-13 10,-4 C7,2 15,8 13,17 C11,27 -11,27 -13,17 C-15,8 -7,2 -10,-4 C-15,-13 -13,-26 0,-26Z" fill="#E4C48F" stroke="#2A1D14" stroke-width="2.2" stroke-linejoin="round" stroke-linecap="round"/><g fill="none" stroke="#2A1D14" stroke-opacity=".35" stroke-width="1.4" stroke-linecap="round"><path d="M-6,-18 L-3,-15 M4,-19 L6,-15 M-5,-9 L-2,-11 M5,-8 L2,-11 M-7,11 L-4,14 M5,10 L8,13 M-3,20 L0,18 M6,19 L4,22"/></g></g><g transform="translate(-81.5,-78.8) rotate(173) scale(0.95)"><ellipse rx="9" ry="13" fill="#E9B97A" stroke="#2A1D14" stroke-width="2" stroke-linejoin="round" stroke-linecap="round"/><path d="M0,-12 L0,12" stroke="#2A1D14" stroke-opacity=".45" stroke-width="1.4"/><ellipse cx="-3" cy="-5" rx="2.2" ry="4" fill="#fff" fill-opacity=".45"/></g><g transform="translate(-49.1,-77.5) rotate(32) scale(0.95)"><ellipse rx="9" ry="13" fill="#E9B97A" stroke="#2A1D14" stroke-width="2" stroke-linejoin="round" stroke-linecap="round"/><path d="M0,-12 L0,12" stroke="#2A1D14" stroke-opacity=".45" stroke-width="1.4"/><ellipse cx="-3" cy="-5" rx="2.2" ry="4" fill="#fff" fill-opacity=".45"/></g><g transform="translate(-18.6,-77.0) rotate(166) scale(0.95)"><ellipse rx="9" ry="13" fill="#E9B97A" stroke="#2A1D14" stroke-width="2" stroke-linejoin="round" stroke-linecap="round"/><path d="M0,-12 L0,12" stroke="#2A1D14" stroke-opacity=".45" stroke-width="1.4"/><ellipse cx="-3" cy="-5" rx="2.2" ry="4" fill="#fff" fill-opacity=".45"/></g><g transform="translate(16.7,-76.0) rotate(12) scale(0.95)"><path d="M0,-26 C13,-26 15,-13 10,-4 C7,2 15,8 13,17 C11,27 -11,27 -13,17 C-15,8 -7,2 -10,-4 C-15,-13 -13,-26 0,-26Z" fill="#E4C48F" stroke="#2A1D14" stroke-width="2.2" stroke-linejoin="round" stroke-linecap="round"/><g fill="none" stroke="#2A1D14" stroke-opacity=".35" stroke-width="1.4" stroke-linecap="round"><path d="M-6,-18 L-3,-15 M4,-19 L6,-15 M-5,-9 L-2,-11 M5,-8 L2,-11 M-7,11 L-4,14 M5,10 L8,13 M-3,20 L0,18 M6,19 L4,22"/></g></g><g transform="translate(44.4,-80.5) rotate(263) scale(0.95)"><ellipse rx="9" ry="13" fill="#E9B97A" stroke="#2A1D14" stroke-width="2" stroke-linejoin="round" stroke-linecap="round"/><path d="M0,-12 L0,12" stroke="#2A1D14" stroke-opacity=".45" stroke-width="1.4"/><ellipse cx="-3" cy="-5" rx="2.2" ry="4" fill="#fff" fill-opacity=".45"/></g><g transform="translate(77.9,-76.5) rotate(117) scale(0.95)"><ellipse rx="9" ry="13" fill="#E9B97A" stroke="#2A1D14" stroke-width="2" stroke-linejoin="round" stroke-linecap="round"/><path d="M0,-12 L0,12" stroke="#2A1D14" stroke-opacity=".45" stroke-width="1.4"/><ellipse cx="-3" cy="-5" rx="2.2" ry="4" fill="#fff" fill-opacity=".45"/></g><g transform="translate(-60.6,-105.4) rotate(96) scale(0.95)"><path d="M0,-26 C13,-26 15,-13 10,-4 C7,2 15,8 13,17 C11,27 -11,27 -13,17 C-15,8 -7,2 -10,-4 C-15,-13 -13,-26 0,-26Z" fill="#E4C48F" stroke="#2A1D14" stroke-width="2.2" stroke-linejoin="round" stroke-linecap="round"/><g fill="none" stroke="#2A1D14" stroke-opacity=".35" stroke-width="1.4" stroke-linecap="round"><path d="M-6,-18 L-3,-15 M4,-19 L6,-15 M-5,-9 L-2,-11 M5,-8 L2,-11 M-7,11 L-4,14 M5,10 L8,13 M-3,20 L0,18 M6,19 L4,22"/></g></g><g transform="translate(-35.9,-103.8) rotate(61) scale(0.95)"><ellipse rx="9" ry="13" fill="#E9B97A" stroke="#2A1D14" stroke-width="2" stroke-linejoin="round" stroke-linecap="round"/><path d="M0,-12 L0,12" stroke="#2A1D14" stroke-opacity=".45" stroke-width="1.4"/><ellipse cx="-3" cy="-5" rx="2.2" ry="4" fill="#fff" fill-opacity=".45"/></g><g transform="translate(-0.9,-107.5) rotate(336) scale(0.95)"><ellipse rx="9" ry="13" fill="#E9B97A" stroke="#2A1D14" stroke-width="2" stroke-linejoin="round" stroke-linecap="round"/><path d="M0,-12 L0,12" stroke="#2A1D14" stroke-opacity=".45" stroke-width="1.4"/><ellipse cx="-3" cy="-5" rx="2.2" ry="4" fill="#fff" fill-opacity=".45"/></g><g transform="translate(31.1,-103.5) rotate(323) scale(0.95)"><path d="M0,-26 C13,-26 15,-13 10,-4 C7,2 15,8 13,17 C11,27 -11,27 -13,17 C-15,8 -7,2 -10,-4 C-15,-13 -13,-26 0,-26Z" fill="#E4C48F" stroke="#2A1D14" stroke-width="2.2" stroke-linejoin="round" stroke-linecap="round"/><g fill="none" stroke="#2A1D14" stroke-opacity=".35" stroke-width="1.4" stroke-linecap="round"><path d="M-6,-18 L-3,-15 M4,-19 L6,-15 M-5,-9 L-2,-11 M5,-8 L2,-11 M-7,11 L-4,14 M5,10 L8,13 M-3,20 L0,18 M6,19 L4,22"/></g></g><g transform="translate(57.9,-104.0) rotate(319) scale(0.95)"><path d="M0,-26 C13,-26 15,-13 10,-4 C7,2 15,8 13,17 C11,27 -11,27 -13,17 C-15,8 -7,2 -10,-4 C-15,-13 -13,-26 0,-26Z" fill="#E4C48F" stroke="#2A1D14" stroke-width="2.2" stroke-linejoin="round" stroke-linecap="round"/><g fill="none" stroke="#2A1D14" stroke-opacity=".35" stroke-width="1.4" stroke-linecap="round"><path d="M-6,-18 L-3,-15 M4,-19 L6,-15 M-5,-9 L-2,-11 M5,-8 L2,-11 M-7,11 L-4,14 M5,10 L8,13 M-3,20 L0,18 M6,19 L4,22"/></g></g><g transform="translate(92.5,-107.0) rotate(117) scale(0.95)"><ellipse rx="9" ry="13" fill="#E9B97A" stroke="#2A1D14" stroke-width="2" stroke-linejoin="round" stroke-linecap="round"/><path d="M0,-12 L0,12" stroke="#2A1D14" stroke-opacity=".45" stroke-width="1.4"/><ellipse cx="-3" cy="-5" rx="2.2" ry="4" fill="#fff" fill-opacity=".45"/></g><g transform="translate(-78.5,-134.7) rotate(242) scale(0.95)"><ellipse rx="9" ry="13" fill="#E9B97A" stroke="#2A1D14" stroke-width="2" stroke-linejoin="round" stroke-linecap="round"/><path d="M0,-12 L0,12" stroke="#2A1D14" stroke-opacity=".45" stroke-width="1.4"/><ellipse cx="-3" cy="-5" rx="2.2" ry="4" fill="#fff" fill-opacity=".45"/></g><g transform="translate(-44.0,-133.6) rotate(303) scale(0.95)"><ellipse rx="9" ry="13" fill="#E9B97A" stroke="#2A1D14" stroke-width="2" stroke-linejoin="round" stroke-linecap="round"/><path d="M0,-12 L0,12" stroke="#2A1D14" stroke-opacity=".45" stroke-width="1.4"/><ellipse cx="-3" cy="-5" rx="2.2" ry="4" fill="#fff" fill-opacity=".45"/></g><g transform="translate(-14.2,-134.2) rotate(192) scale(0.95)"><ellipse rx="9" ry="13" fill="#E9B97A" stroke="#2A1D14" stroke-width="2" stroke-linejoin="round" stroke-linecap="round"/><path d="M0,-12 L0,12" stroke="#2A1D14" stroke-opacity=".45" stroke-width="1.4"/><ellipse cx="-3" cy="-5" rx="2.2" ry="4" fill="#fff" fill-opacity=".45"/></g><g transform="translate(13.3,-129.0) rotate(242) scale(0.95)"><ellipse rx="9" ry="13" fill="#E9B97A" stroke="#2A1D14" stroke-width="2" stroke-linejoin="round" stroke-linecap="round"/><path d="M0,-12 L0,12" stroke="#2A1D14" stroke-opacity=".45" stroke-width="1.4"/><ellipse cx="-3" cy="-5" rx="2.2" ry="4" fill="#fff" fill-opacity=".45"/></g><g transform="translate(48.1,-133.6) rotate(318) scale(0.95)"><ellipse rx="9" ry="13" fill="#E9B97A" stroke="#2A1D14" stroke-width="2" stroke-linejoin="round" stroke-linecap="round"/><path d="M0,-12 L0,12" stroke="#2A1D14" stroke-opacity=".45" stroke-width="1.4"/><ellipse cx="-3" cy="-5" rx="2.2" ry="4" fill="#fff" fill-opacity=".45"/></g><g transform="translate(74.0,-130.5) rotate(283) scale(0.95)"><ellipse rx="9" ry="13" fill="#E9B97A" stroke="#2A1D14" stroke-width="2" stroke-linejoin="round" stroke-linecap="round"/><path d="M0,-12 L0,12" stroke="#2A1D14" stroke-opacity=".45" stroke-width="1.4"/><ellipse cx="-3" cy="-5" rx="2.2" ry="4" fill="#fff" fill-opacity=".45"/></g><g transform="translate(-66.0,-158.7) rotate(176) scale(0.95)"><path d="M0,-26 C13,-26 15,-13 10,-4 C7,2 15,8 13,17 C11,27 -11,27 -13,17 C-15,8 -7,2 -10,-4 C-15,-13 -13,-26 0,-26Z" fill="#E4C48F" stroke="#2A1D14" stroke-width="2.2" stroke-linejoin="round" stroke-linecap="round"/><g fill="none" stroke="#2A1D14" stroke-opacity=".35" stroke-width="1.4" stroke-linecap="round"><path d="M-6,-18 L-3,-15 M4,-19 L6,-15 M-5,-9 L-2,-11 M5,-8 L2,-11 M-7,11 L-4,14 M5,10 L8,13 M-3,20 L0,18 M6,19 L4,22"/></g></g><g transform="translate(-29.1,-158.3) rotate(116) scale(0.95)"><ellipse rx="9" ry="13" fill="#E9B97A" stroke="#2A1D14" stroke-width="2" stroke-linejoin="round" stroke-linecap="round"/><path d="M0,-12 L0,12" stroke="#2A1D14" stroke-opacity=".45" stroke-width="1.4"/><ellipse cx="-3" cy="-5" rx="2.2" ry="4" fill="#fff" fill-opacity=".45"/></g><g transform="translate(-0.4,-157.3) rotate(285) scale(0.95)"><path d="M0,-26 C13,-26 15,-13 10,-4 C7,2 15,8 13,17 C11,27 -11,27 -13,17 C-15,8 -7,2 -10,-4 C-15,-13 -13,-26 0,-26Z" fill="#E4C48F" stroke="#2A1D14" stroke-width="2.2" stroke-linejoin="round" stroke-linecap="round"/><g fill="none" stroke="#2A1D14" stroke-opacity=".35" stroke-width="1.4" stroke-linecap="round"><path d="M-6,-18 L-3,-15 M4,-19 L6,-15 M-5,-9 L-2,-11 M5,-8 L2,-11 M-7,11 L-4,14 M5,10 L8,13 M-3,20 L0,18 M6,19 L4,22"/></g></g><g transform="translate(29.2,-157.4) rotate(269) scale(0.95)"><ellipse rx="9" ry="13" fill="#E9B97A" stroke="#2A1D14" stroke-width="2" stroke-linejoin="round" stroke-linecap="round"/><path d="M0,-12 L0,12" stroke="#2A1D14" stroke-opacity=".45" stroke-width="1.4"/><ellipse cx="-3" cy="-5" rx="2.2" ry="4" fill="#fff" fill-opacity=".45"/></g><g transform="translate(62.4,-159.9) rotate(266) scale(0.95)"><ellipse rx="9" ry="13" fill="#E9B97A" stroke="#2A1D14" stroke-width="2" stroke-linejoin="round" stroke-linecap="round"/><path d="M0,-12 L0,12" stroke="#2A1D14" stroke-opacity=".45" stroke-width="1.4"/><ellipse cx="-3" cy="-5" rx="2.2" ry="4" fill="#fff" fill-opacity=".45"/></g><g transform="translate(90.0,-161.0) rotate(231) scale(0.95)"><ellipse rx="9" ry="13" fill="#E9B97A" stroke="#2A1D14" stroke-width="2" stroke-linejoin="round" stroke-linecap="round"/><path d="M0,-12 L0,12" stroke="#2A1D14" stroke-opacity=".45" stroke-width="1.4"/><ellipse cx="-3" cy="-5" rx="2.2" ry="4" fill="#fff" fill-opacity=".45"/></g><g transform="translate(-77.2,-188.8) rotate(14) scale(0.95)"><ellipse rx="9" ry="13" fill="#E9B97A" stroke="#2A1D14" stroke-width="2" stroke-linejoin="round" stroke-linecap="round"/><path d="M0,-12 L0,12" stroke="#2A1D14" stroke-opacity=".45" stroke-width="1.4"/><ellipse cx="-3" cy="-5" rx="2.2" ry="4" fill="#fff" fill-opacity=".45"/></g><g transform="translate(-50.2,-186.8) rotate(52) scale(0.95)"><ellipse rx="9" ry="13" fill="#E9B97A" stroke="#2A1D14" stroke-width="2" stroke-linejoin="round" stroke-linecap="round"/><path d="M0,-12 L0,12" stroke="#2A1D14" stroke-opacity=".45" stroke-width="1.4"/><ellipse cx="-3" cy="-5" rx="2.2" ry="4" fill="#fff" fill-opacity=".45"/></g><g transform="translate(-18.9,-186.2) rotate(190) scale(0.95)"><path d="M0,-26 C13,-26 15,-13 10,-4 C7,2 15,8 13,17 C11,27 -11,27 -13,17 C-15,8 -7,2 -10,-4 C-15,-13 -13,-26 0,-26Z" fill="#E4C48F" stroke="#2A1D14" stroke-width="2.2" stroke-linejoin="round" stroke-linecap="round"/><g fill="none" stroke="#2A1D14" stroke-opacity=".35" stroke-width="1.4" stroke-linecap="round"><path d="M-6,-18 L-3,-15 M4,-19 L6,-15 M-5,-9 L-2,-11 M5,-8 L2,-11 M-7,11 L-4,14 M5,10 L8,13 M-3,20 L0,18 M6,19 L4,22"/></g></g><g transform="translate(18.5,-187.8) rotate(157) scale(0.95)"><ellipse rx="9" ry="13" fill="#E9B97A" stroke="#2A1D14" stroke-width="2" stroke-linejoin="round" stroke-linecap="round"/><path d="M0,-12 L0,12" stroke="#2A1D14" stroke-opacity=".45" stroke-width="1.4"/><ellipse cx="-3" cy="-5" rx="2.2" ry="4" fill="#fff" fill-opacity=".45"/></g><g transform="translate(45.1,-183.5) rotate(223) scale(0.95)"><ellipse rx="9" ry="13" fill="#E9B97A" stroke="#2A1D14" stroke-width="2" stroke-linejoin="round" stroke-linecap="round"/><path d="M0,-12 L0,12" stroke="#2A1D14" stroke-opacity=".45" stroke-width="1.4"/><ellipse cx="-3" cy="-5" rx="2.2" ry="4" fill="#fff" fill-opacity=".45"/></g><g transform="translate(77.4,-185.7) rotate(190) scale(0.95)"><ellipse rx="9" ry="13" fill="#E9B97A" stroke="#2A1D14" stroke-width="2" stroke-linejoin="round" stroke-linecap="round"/><path d="M0,-12 L0,12" stroke="#2A1D14" stroke-opacity=".45" stroke-width="1.4"/><ellipse cx="-3" cy="-5" rx="2.2" ry="4" fill="#fff" fill-opacity=".45"/></g></g>
  <rect x="-96" y="-206" width="192" height="206" rx="26" fill="#FFFFFF" fill-opacity=".18" stroke="#2A1D14" stroke-width="3" stroke-linejoin="round" stroke-linecap="round"/>
  <path d="M-78,-186 L-78,-40" stroke="#fff" stroke-opacity=".7" stroke-width="7" stroke-linecap="round"/>
  <rect x="-84" y="-246" width="168" height="44" rx="12" fill="#C2562A" stroke="#2A1D14" stroke-width="3" stroke-linejoin="round" stroke-linecap="round"/>
  <path d="M-84,-224 L84,-224" stroke="#9A4120" stroke-width="10"/>
  <rect x="-84" y="-246" width="168" height="44" rx="12" fill="none" stroke="#2A1D14" stroke-width="3" stroke-linejoin="round" stroke-linecap="round"/>
  <rect x="-70" y="-150" width="140" height="78" rx="14" fill="#FBF5EC" stroke="#2A1D14" stroke-width="2.6" stroke-linejoin="round" stroke-linecap="round"/>
  <rect x="-70" y="-150" width="140" height="20" rx="10" fill="#C2562A"/>
  <rect x="-70" y="-140" width="140" height="10" fill="#C2562A"/>
  <rect x="-70" y="-150" width="140" height="78" rx="14" fill="none" stroke="#2A1D14" stroke-width="2.6" stroke-linejoin="round" stroke-linecap="round"/>
  <text x="0" y="-135" text-anchor="middle" font-family="'Bricolage Grotesque','DM Sans',sans-serif"
        font-weight="700" font-size="12" letter-spacing="1" fill="#F6C453">C4N</text>
  <g transform="translate(-24,-100) scale(1.05)"><path d="M0,-26 C13,-26 15,-13 10,-4 C7,2 15,8 13,17 C11,27 -11,27 -13,17 C-15,8 -7,2 -10,-4 C-15,-13 -13,-26 0,-26Z" fill="#E4C48F" stroke="#2A1D14" stroke-width="2.2" stroke-linejoin="round" stroke-linecap="round"/><g fill="none" stroke="#2A1D14" stroke-opacity=".35" stroke-width="1.4" stroke-linecap="round"><path d="M-6,-18 L-3,-15 M4,-19 L6,-15 M-5,-9 L-2,-11 M5,-8 L2,-11 M-7,11 L-4,14 M5,10 L8,13 M-3,20 L0,18 M6,19 L4,22"/></g></g>
  <g transform="translate(26,-100)">
    <circle r="17" fill="#FFFFFF" stroke="#2A1D14" stroke-width="2.2" stroke-linejoin="round" stroke-linecap="round"/>
    <g transform="scale(.85)"><path d="M0,-10 C5,-4 8,0 7,5 A7,7 0 0 1 -7,5 C-8,1 -5,-2 -3,-5 C-2,-1 0,0 1,-2 C2,-5 1,-8 0,-10Z" fill="#E8692C" stroke="#2A1D14" stroke-width="2" stroke-linejoin="round"/></g>
  </g>
</g>
<g transform="translate(93.8,300.3) rotate(28) scale(1.15)"><path d="M0,-26 C13,-26 15,-13 10,-4 C7,2 15,8 13,17 C11,27 -11,27 -13,17 C-15,8 -7,2 -10,-4 C-15,-13 -13,-26 0,-26Z" fill="#E4C48F" stroke="#2A1D14" stroke-width="2.2" stroke-linejoin="round" stroke-linecap="round"/><g fill="none" stroke="#2A1D14" stroke-opacity=".35" stroke-width="1.4" stroke-linecap="round"><path d="M-6,-18 L-3,-15 M4,-19 L6,-15 M-5,-9 L-2,-11 M5,-8 L2,-11 M-7,11 L-4,14 M5,10 L8,13 M-3,20 L0,18 M6,19 L4,22"/></g></g><g transform="translate(122.7,333.5) rotate(-33) scale(1.04)"><ellipse rx="9" ry="13" fill="#E9B97A" stroke="#2A1D14" stroke-width="2" stroke-linejoin="round" stroke-linecap="round"/><path d="M0,-12 L0,12" stroke="#2A1D14" stroke-opacity=".45" stroke-width="1.4"/><ellipse cx="-3" cy="-5" rx="2.2" ry="4" fill="#fff" fill-opacity=".45"/></g><g transform="translate(66.2,333.1) rotate(27) scale(1.10)"><ellipse rx="9" ry="13" fill="#E9B97A" stroke="#2A1D14" stroke-width="2" stroke-linejoin="round" stroke-linecap="round"/><path d="M0,-12 L0,12" stroke="#2A1D14" stroke-opacity=".45" stroke-width="1.4"/><ellipse cx="-3" cy="-5" rx="2.2" ry="4" fill="#fff" fill-opacity=".45"/></g><g transform="translate(389.2,302.2) rotate(37) scale(1.08)"><path d="M0,-26 C13,-26 15,-13 10,-4 C7,2 15,8 13,17 C11,27 -11,27 -13,17 C-15,8 -7,2 -10,-4 C-15,-13 -13,-26 0,-26Z" fill="#E4C48F" stroke="#2A1D14" stroke-width="2.2" stroke-linejoin="round" stroke-linecap="round"/><g fill="none" stroke="#2A1D14" stroke-opacity=".35" stroke-width="1.4" stroke-linecap="round"><path d="M-6,-18 L-3,-15 M4,-19 L6,-15 M-5,-9 L-2,-11 M5,-8 L2,-11 M-7,11 L-4,14 M5,10 L8,13 M-3,20 L0,18 M6,19 L4,22"/></g></g><g transform="translate(357.2,333.8) rotate(13) scale(0.93)"><ellipse rx="9" ry="13" fill="#E9B97A" stroke="#2A1D14" stroke-width="2" stroke-linejoin="round" stroke-linecap="round"/><path d="M0,-12 L0,12" stroke="#2A1D14" stroke-opacity=".45" stroke-width="1.4"/><ellipse cx="-3" cy="-5" rx="2.2" ry="4" fill="#fff" fill-opacity=".45"/></g><g transform="translate(416.1,328.5) rotate(-29) scale(1.04)"><ellipse rx="9" ry="13" fill="#E9B97A" stroke="#2A1D14" stroke-width="2" stroke-linejoin="round" stroke-linecap="round"/><path d="M0,-12 L0,12" stroke="#2A1D14" stroke-opacity=".45" stroke-width="1.4"/><ellipse cx="-3" cy="-5" rx="2.2" ry="4" fill="#fff" fill-opacity=".45"/></g>
</svg>
