<svg xmlns="http://www.w3.org/2000/svg" viewBox="0 0 480 360" width="480" height="360" role="img" aria-label="Snacks, Coated Green Peas">
<rect width="480" height="360" fill="#DDEBD2"/>
<circle cx="78" cy="70" r="120" fill="#FFFFFF" fill-opacity=".28"/>
<circle cx="430" cy="300" r="90" fill="#FFFFFF" fill-opacity=".18"/>

<g transform="translate(240,322) scale(0.78)">
  <ellipse cx="0" cy="2" rx="104" ry="10" fill="#2A1D14" fill-opacity=".12"/>
  <path d="M-92,-236 L-92.0,-236 L-82.8,-232 L-73.6,-236 L-64.4,-232 L-55.2,-236 L-46.0,-232 L-36.8,-236 L-27.6,-232 L-18.4,-236 L-9.2,-232 L0.0,-236 L9.2,-232 L18.4,-236 L27.6,-232 L36.8,-236 L46.0,-232 L55.2,-236 L64.4,-232 L73.6,-236 L82.8,-232 L92.0,-236 L92,-236 L92,-222 C98,-160 100,-60 96,-12 C95,-4 88,0 80,0
           L-80,0 C-88,0 -95,-4 -96,-12 C-100,-60 -98,-160 -92,-222Z"
        fill="#2C6E74" stroke="#2A1D14" stroke-width="3" stroke-linejoin="round" stroke-linecap="round"/>
  <path d="M-92,-222 L92,-222" stroke="#2A1D14" stroke-width="2" stroke-opacity=".6"/>
  <path d="M-96,-30 C-40,-18 40,-18 96,-30 L96,-12 C95,-4 88,0 80,0 L-80,0 C-88,0 -95,-4 -96,-12Z"
        fill="#215558"/>
  <path d="M-92,-222 C-98,-160 -100,-60 -96,-12 C-95,-4 -88,0 -80,0 L80,0 C88,0 95,-4 96,-12
           C100,-60 98,-160 92,-222Z" fill="none" stroke="#2A1D14" stroke-width="3" stroke-linejoin="round" stroke-linecap="round"/>
  <path d="M-74,-200 C-80,-150 -80,-90 -76,-50" fill="none" stroke="#fff" stroke-opacity=".22"
        stroke-width="8" stroke-linecap="round"/>
  <rect x="-62" y="-196" width="124" height="22" rx="11" fill="#F6C453" stroke="#2A1D14" stroke-width="2" stroke-linejoin="round" stroke-linecap="round"/>
  <text x="0" y="-180" text-anchor="middle" font-family="'Bricolage Grotesque','DM Sans',sans-serif"
        font-weight="700" font-size="14" letter-spacing="1" fill="#2C6E74">C4N</text>
  <circle cx="0" cy="-104" r="56" fill="#FBF5EC" stroke="#2A1D14" stroke-width="3" stroke-linejoin="round" stroke-linecap="round"/>
  <g transform="translate(0,-104) scale(1.75)"><circle r="10" fill="#86B556" stroke="#2A1D14" stroke-width="2" stroke-linejoin="round" stroke-linecap="round"/><ellipse cx="-3.5" cy="-3.5" rx="3" ry="2" fill="#fff" fill-opacity=".5"/></g>
  <g transform="translate(58,-150)">
    <circle r="20" fill="#FFFFFF" stroke="#2A1D14" stroke-width="2.4" stroke-linejoin="round" stroke-linecap="round"/>
    <g transform="scale(.7)"><circle r="10" fill="#86B556" stroke="#2A1D14" stroke-width="2" stroke-linejoin="round" stroke-linecap="round"/><ellipse cx="-3.5" cy="-3.5" rx="3" ry="2" fill="#fff" fill-opacity=".5"/></g>
  </g>
</g>
<g transform="translate(93.6,299.7) rotate(-25) scale(1.04)"><circle r="10" fill="#86B556" stroke="#2A1D14" stroke-width="2" stroke-linejoin="round" stroke-linecap="round"/><ellipse cx="-3.5" cy="-3.5" rx="3" ry="2" fill="#fff" fill-opacity=".5"/></g><g transform="translate(118.8,326.6) rotate(14) scale(1.04)"><circle r="10" fill="#86B556" stroke="#2A1D14" stroke-width="2" stroke-linejoin="round" stroke-linecap="round"/><ellipse cx="-3.5" cy="-3.5" rx="3" ry="2" fill="#fff" fill-opacity=".5"/></g><g transform="translate(61.9,335.9) rotate(16) scale(0.96)"><circle r="10" fill="#86B556" stroke="#2A1D14" stroke-width="2" stroke-linejoin="round" stroke-linecap="round"/><ellipse cx="-3.5" cy="-3.5" rx="3" ry="2" fill="#fff" fill-opacity=".5"/></g><g transform="translate(393.1,300.7) rotate(4) scale(0.97)"><circle r="10" fill="#86B556" stroke="#2A1D14" stroke-width="2" stroke-linejoin="round" stroke-linecap="round"/><ellipse cx="-3.5" cy="-3.5" rx="3" ry="2" fill="#fff" fill-opacity=".5"/></g><g transform="translate(360.0,330.9) rotate(24) scale(1.08)"><circle r="10" fill="#86B556" stroke="#2A1D14" stroke-width="2" stroke-linejoin="round" stroke-linecap="round"/><ellipse cx="-3.5" cy="-3.5" rx="3" ry="2" fill="#fff" fill-opacity=".5"/></g><g transform="translate(421.5,329.4) rotate(22) scale(1.00)"><circle r="10" fill="#86B556" stroke="#2A1D14" stroke-width="2" stroke-linejoin="round" stroke-linecap="round"/><ellipse cx="-3.5" cy="-3.5" rx="3" ry="2" fill="#fff" fill-opacity=".5"/></g><g transform="translate(39.7,301.5) rotate(-39) scale(1.09)"><circle r="10" fill="#86B556" stroke="#2A1D14" stroke-width="2" stroke-linejoin="round" stroke-linecap="round"/><ellipse cx="-3.5" cy="-3.5" rx="3" ry="2" fill="#fff" fill-opacity=".5"/></g><g transform="translate(443.5,309.7) rotate(-36) scale(1.13)"><circle r="10" fill="#86B556" stroke="#2A1D14" stroke-width="2" stroke-linejoin="round" stroke-linecap="round"/><ellipse cx="-3.5" cy="-3.5" rx="3" ry="2" fill="#fff" fill-opacity=".5"/></g>
</svg>
