<svg xmlns="http://www.w3.org/2000/svg" viewBox="0 0 480 360" width="480" height="360" role="img" aria-label="Snacks, Satay Broad Beans">
<rect width="480" height="360" fill="#F3D0B8"/>
<circle cx="78" cy="70" r="120" fill="#FFFFFF" fill-opacity=".28"/>
<circle cx="430" cy="300" r="90" fill="#FFFFFF" fill-opacity=".18"/>

<g transform="translate(240,322) scale(0.78)">
  <ellipse cx="0" cy="2" rx="104" ry="10" fill="#2A1D14" fill-opacity=".12"/>
  <path d="M-92,-236 L-92.0,-236 L-82.8,-232 L-73.6,-236 L-64.4,-232 L-55.2,-236 L-46.0,-232 L-36.8,-236 L-27.6,-232 L-18.4,-236 L-9.2,-232 L0.0,-236 L9.2,-232 L18.4,-236 L27.6,-232 L36.8,-236 L46.0,-232 L55.2,-236 L64.4,-232 L73.6,-236 L82.8,-232 L92.0,-236 L92,-236 L92,-222 C98,-160 100,-60 96,-12 C95,-4 88,0 80,0
           L-80,0 C-88,0 -95,-4 -96,-12 C-100,-60 -98,-160 -92,-222Z"
        fill="#2C6E74" stroke="#2A1D14" stroke-width="3" stroke-linejoin="round" stroke-linecap="round"/>
  <path d="M-92,-222 L92,-222" stroke="#2A1D14" stroke-width="2" stroke-opacity=".6"/>
  <path d="M-96,-30 C-40,-18 40,-18 96,-30 L96,-12 C95,-4 88,0 80,0 L-80,0 C-88,0 -95,-4 -96,-12Z"
        fill="#215558"/>
  <path d="M-92,-222 C-98,-160 -100,-60 -96,-12 C-95,-4 -88,0 -80,0 L80,0 C88,0 95,-4 96,-12
           C100,-60 98,-160 92,-222Z" fill="none" stroke="#2A1D14" stroke-width="3" stroke-linejoin="round" stroke-linecap="round"/>
  <path d="M-74,-200 C-80,-150 -80,-90 -76,-50" fill="none" stroke="#fff" stroke-opacity=".22"
        stroke-width="8" stroke-linecap="round"/>
  <rect x="-62" y="-196" width="124" height="22" rx="11" fill="#F6C453" stroke="#2A1D14" stroke-width="2" stroke-linejoin="round" stroke-linecap="round"/>
  <text x="0" y="-180" text-anchor="middle" font-family="'Bricolage Grotesque','DM Sans',sans-serif"
        font-weight="700" font-size="14" letter-spacing="1" fill="#2C6E74">C4N</text>
  <circle cx="0" cy="-104" r="56" fill="#FBF5EC" stroke="#2A1D14" stroke-width="3" stroke-linejoin="round" stroke-linecap="round"/>
  <g transform="translate(0,-104) scale(1.75)"><path d="M-15,-2 C-15,-12 -2,-13 6,-11 C15,-8 17,4 10,10 C2,15 -15,12 -15,-2Z" fill="#C17A40" stroke="#2A1D14" stroke-width="2" stroke-linejoin="round" stroke-linecap="round"/><path d="M-9,-1 C-3,-5 4,-5 9,0" fill="none" stroke="#2A1D14" stroke-opacity=".5" stroke-width="1.6" stroke-linecap="round"/><circle cx="2" cy="4" r="1.2" fill="#D23B1E"/><circle cx="-5" cy="5" r="1" fill="#D23B1E"/></g>
  <g transform="translate(58,-150)">
    <circle r="20" fill="#FFFFFF" stroke="#2A1D14" stroke-width="2.4" stroke-linejoin="round" stroke-linecap="round"/>
    <path d="M-3,9 C-6,2 -3,-5 4,-8 C7,-9 9,-7 7,-5 C2,-2 1,3 2,8 C2,10 -2,11 -3,9Z" fill="#D23B1E" stroke="#2A1D14" stroke-width="2" stroke-linejoin="round"/><path d="M5,-8 L7,-11" fill="none" stroke="#2A1D14" stroke-width="2" stroke-linecap="round" stroke-linejoin="round"/>
  </g>
</g>
<g transform="translate(92.8,299.7) rotate(-1) scale(0.92)"><path d="M-15,-2 C-15,-12 -2,-13 6,-11 C15,-8 17,4 10,10 C2,15 -15,12 -15,-2Z" fill="#C17A40" stroke="#2A1D14" stroke-width="2" stroke-linejoin="round" stroke-linecap="round"/><path d="M-9,-1 C-3,-5 4,-5 9,0" fill="none" stroke="#2A1D14" stroke-opacity=".5" stroke-width="1.6" stroke-linecap="round"/><circle cx="2" cy="4" r="1.2" fill="#D23B1E"/><circle cx="-5" cy="5" r="1" fill="#D23B1E"/></g><g transform="translate(117.3,333.7) rotate(-36) scale(1.12)"><path d="M-15,-2 C-15,-12 -2,-13 6,-11 C15,-8 17,4 10,10 C2,15 -15,12 -15,-2Z" fill="#C17A40" stroke="#2A1D14" stroke-width="2" stroke-linejoin="round" stroke-linecap="round"/><path d="M-9,-1 C-3,-5 4,-5 9,0" fill="none" stroke="#2A1D14" stroke-opacity=".5" stroke-width="1.6" stroke-linecap="round"/><circle cx="2" cy="4" r="1.2" fill="#D23B1E"/><circle cx="-5" cy="5" r="1" fill="#D23B1E"/></g><g transform="translate(68.2,338.2) rotate(-2) scale(1.15)"><path d="M-15,-2 C-15,-12 -2,-13 6,-11 C15,-8 17,4 10,10 C2,15 -15,12 -15,-2Z" fill="#C17A40" stroke="#2A1D14" stroke-width="2" stroke-linejoin="round" stroke-linecap="round"/><path d="M-9,-1 C-3,-5 4,-5 9,0" fill="none" stroke="#2A1D14" stroke-opacity=".5" stroke-width="1.6" stroke-linecap="round"/><circle cx="2" cy="4" r="1.2" fill="#D23B1E"/><circle cx="-5" cy="5" r="1" fill="#D23B1E"/></g><g transform="translate(395.8,299.2) rotate(31) scale(1.12)"><path d="M-15,-2 C-15,-12 -2,-13 6,-11 C15,-8 17,4 10,10 C2,15 -15,12 -15,-2Z" fill="#C17A40" stroke="#2A1D14" stroke-width="2" stroke-linejoin="round" stroke-linecap="round"/><path d="M-9,-1 C-3,-5 4,-5 9,0" fill="none" stroke="#2A1D14" stroke-opacity=".5" stroke-width="1.6" stroke-linecap="round"/><circle cx="2" cy="4" r="1.2" fill="#D23B1E"/><circle cx="-5" cy="5" r="1" fill="#D23B1E"/></g><g transform="translate(358.2,338.0) rotate(-31) scale(0.99)"><path d="M-15,-2 C-15,-12 -2,-13 6,-11 C15,-8 17,4 10,10 C2,15 -15,12 -15,-2Z" fill="#C17A40" stroke="#2A1D14" stroke-width="2" stroke-linejoin="round" stroke-linecap="round"/><path d="M-9,-1 C-3,-5 4,-5 9,0" fill="none" stroke="#2A1D14" stroke-opacity=".5" stroke-width="1.6" stroke-linecap="round"/><circle cx="2" cy="4" r="1.2" fill="#D23B1E"/><circle cx="-5" cy="5" r="1" fill="#D23B1E"/></g><g transform="translate(417.7,329.3) rotate(3) scale(1.10)"><path d="M-15,-2 C-15,-12 -2,-13 6,-11 C15,-8 17,4 10,10 C2,15 -15,12 -15,-2Z" fill="#C17A40" stroke="#2A1D14" stroke-width="2" stroke-linejoin="round" stroke-linecap="round"/><path d="M-9,-1 C-3,-5 4,-5 9,0" fill="none" stroke="#2A1D14" stroke-opacity=".5" stroke-width="1.6" stroke-linecap="round"/><circle cx="2" cy="4" r="1.2" fill="#D23B1E"/><circle cx="-5" cy="5" r="1" fill="#D23B1E"/></g><g transform="translate(39.0,301.4) rotate(-28) scale(0.94)"><path d="M-15,-2 C-15,-12 -2,-13 6,-11 C15,-8 17,4 10,10 C2,15 -15,12 -15,-2Z" fill="#C17A40" stroke="#2A1D14" stroke-width="2" stroke-linejoin="round" stroke-linecap="round"/><path d="M-9,-1 C-3,-5 4,-5 9,0" fill="none" stroke="#2A1D14" stroke-opacity=".5" stroke-width="1.6" stroke-linecap="round"/><circle cx="2" cy="4" r="1.2" fill="#D23B1E"/><circle cx="-5" cy="5" r="1" fill="#D23B1E"/></g><g transform="translate(443.6,309.6) rotate(-33) scale(1.01)"><path d="M-15,-2 C-15,-12 -2,-13 6,-11 C15,-8 17,4 10,10 C2,15 -15,12 -15,-2Z" fill="#C17A40" stroke="#2A1D14" stroke-width="2" stroke-linejoin="round" stroke-linecap="round"/><path d="M-9,-1 C-3,-5 4,-5 9,0" fill="none" stroke="#2A1D14" stroke-opacity=".5" stroke-width="1.6" stroke-linecap="round"/><circle cx="2" cy="4" r="1.2" fill="#D23B1E"/><circle cx="-5" cy="5" r="1" fill="#D23B1E"/></g>
</svg>
