<svg xmlns="http://www.w3.org/2000/svg" viewBox="0 0 480 360" width="480" height="360" role="img" aria-label="Walnuts, Natural Baked">
<rect width="480" height="360" fill="#ECE4CC"/>
<circle cx="78" cy="70" r="120" fill="#FFFFFF" fill-opacity=".28"/>
<circle cx="430" cy="300" r="90" fill="#FFFFFF" fill-opacity=".18"/>

<g transform="translate(240,326)">
  <ellipse cx="0" cy="2" rx="112" ry="10" fill="#2A1D14" fill-opacity=".12"/>
  <clipPath id="jarclip"><rect x="-96" y="-206" width="192" height="206" rx="26"/></clipPath>
  <rect x="-96" y="-206" width="192" height="206" rx="26" fill="#FFFDF9"/>
  <g clip-path="url(#jarclip)"><g transform="translate(-79.8,-25.8) rotate(141) scale(0.95)"><path d="M17.9,0.0 L18.7,1.4 L19.1,3.0 L18.8,4.4 L17.8,5.7 L16.3,6.7 L14.7,7.5 L13.4,8.2 L12.4,9.1 L11.8,10.3 L11.3,11.8 L10.6,13.3 L9.7,14.6 L8.3,15.5 L6.5,15.8 L4.7,15.5 L3.0,14.9 L1.4,14.4 L0.0,14.2 L-1.4,14.4 L-3.0,14.9 L-4.7,15.5 L-6.5,15.8 L-8.3,15.5 L-9.7,14.6 L-10.6,13.3 L-11.3,11.8 L-11.8,10.3 L-12.4,9.1 L-13.4,8.2 L-14.7,7.5 L-16.3,6.7 L-17.8,5.7 L-18.8,4.4 L-19.1,3.0 L-18.7,1.4 L-17.9,0.0 L-16.8,-1.3 L-16.0,-2.5 L-15.7,-3.7 L-15.8,-5.0 L-16.0,-6.6 L-16.2,-8.2 L-15.9,-9.7 L-14.9,-11.0 L-13.5,-11.8 L-11.7,-12.2 L-9.8,-12.3 L-8.2,-12.4 L-6.8,-12.8 L-5.7,-13.6 L-4.5,-14.7 L-3.2,-15.9 L-1.7,-16.8 L-0.0,-17.1 L1.7,-16.8 L3.2,-15.9 L4.5,-14.7 L5.7,-13.6 L6.8,-12.8 L8.2,-12.4 L9.8,-12.3 L11.7,-12.2 L13.5,-11.8 L14.9,-11.0 L15.9,-9.7 L16.2,-8.2 L16.0,-6.6 L15.8,-5.0 L15.7,-3.7 L16.0,-2.5 L16.8,-1.3 L17.8,-0.0Z" fill="#B9844F" stroke="#2A1D14" stroke-width="2" stroke-linejoin="round" stroke-linecap="round"/><g fill="none" stroke="#2A1D14" stroke-opacity=".35" stroke-width="1.5" stroke-linecap="round"><path d="M0,-15 C-3,-5 3,5 0,15"/><path d="M-6,-9 C-11,-6 -11,0 -7,2 C-12,4 -11,10 -6,11"/><path d="M6,-9 C11,-6 11,0 7,2 C12,4 11,10 6,11"/></g></g><g transform="translate(-47.2,-21.2) rotate(121) scale(0.95)"><path d="M17.9,0.0 L18.7,1.4 L19.1,3.0 L18.8,4.4 L17.8,5.7 L16.3,6.7 L14.7,7.5 L13.4,8.2 L12.4,9.1 L11.8,10.3 L11.3,11.8 L10.6,13.3 L9.7,14.6 L8.3,15.5 L6.5,15.8 L4.7,15.5 L3.0,14.9 L1.4,14.4 L0.0,14.2 L-1.4,14.4 L-3.0,14.9 L-4.7,15.5 L-6.5,15.8 L-8.3,15.5 L-9.7,14.6 L-10.6,13.3 L-11.3,11.8 L-11.8,10.3 L-12.4,9.1 L-13.4,8.2 L-14.7,7.5 L-16.3,6.7 L-17.8,5.7 L-18.8,4.4 L-19.1,3.0 L-18.7,1.4 L-17.9,0.0 L-16.8,-1.3 L-16.0,-2.5 L-15.7,-3.7 L-15.8,-5.0 L-16.0,-6.6 L-16.2,-8.2 L-15.9,-9.7 L-14.9,-11.0 L-13.5,-11.8 L-11.7,-12.2 L-9.8,-12.3 L-8.2,-12.4 L-6.8,-12.8 L-5.7,-13.6 L-4.5,-14.7 L-3.2,-15.9 L-1.7,-16.8 L-0.0,-17.1 L1.7,-16.8 L3.2,-15.9 L4.5,-14.7 L5.7,-13.6 L6.8,-12.8 L8.2,-12.4 L9.8,-12.3 L11.7,-12.2 L13.5,-11.8 L14.9,-11.0 L15.9,-9.7 L16.2,-8.2 L16.0,-6.6 L15.8,-5.0 L15.7,-3.7 L16.0,-2.5 L16.8,-1.3 L17.8,-0.0Z" fill="#B9844F" stroke="#2A1D14" stroke-width="2" stroke-linejoin="round" stroke-linecap="round"/><g fill="none" stroke="#2A1D14" stroke-opacity=".35" stroke-width="1.5" stroke-linecap="round"><path d="M0,-15 C-3,-5 3,5 0,15"/><path d="M-6,-9 C-11,-6 -11,0 -7,2 C-12,4 -11,10 -6,11"/><path d="M6,-9 C11,-6 11,0 7,2 C12,4 11,10 6,11"/></g></g><g transform="translate(-15.2,-23.0) rotate(12) scale(0.95)"><path d="M17.9,0.0 L18.7,1.4 L19.1,3.0 L18.8,4.4 L17.8,5.7 L16.3,6.7 L14.7,7.5 L13.4,8.2 L12.4,9.1 L11.8,10.3 L11.3,11.8 L10.6,13.3 L9.7,14.6 L8.3,15.5 L6.5,15.8 L4.7,15.5 L3.0,14.9 L1.4,14.4 L0.0,14.2 L-1.4,14.4 L-3.0,14.9 L-4.7,15.5 L-6.5,15.8 L-8.3,15.5 L-9.7,14.6 L-10.6,13.3 L-11.3,11.8 L-11.8,10.3 L-12.4,9.1 L-13.4,8.2 L-14.7,7.5 L-16.3,6.7 L-17.8,5.7 L-18.8,4.4 L-19.1,3.0 L-18.7,1.4 L-17.9,0.0 L-16.8,-1.3 L-16.0,-2.5 L-15.7,-3.7 L-15.8,-5.0 L-16.0,-6.6 L-16.2,-8.2 L-15.9,-9.7 L-14.9,-11.0 L-13.5,-11.8 L-11.7,-12.2 L-9.8,-12.3 L-8.2,-12.4 L-6.8,-12.8 L-5.7,-13.6 L-4.5,-14.7 L-3.2,-15.9 L-1.7,-16.8 L-0.0,-17.1 L1.7,-16.8 L3.2,-15.9 L4.5,-14.7 L5.7,-13.6 L6.8,-12.8 L8.2,-12.4 L9.8,-12.3 L11.7,-12.2 L13.5,-11.8 L14.9,-11.0 L15.9,-9.7 L16.2,-8.2 L16.0,-6.6 L15.8,-5.0 L15.7,-3.7 L16.0,-2.5 L16.8,-1.3 L17.8,-0.0Z" fill="#B9844F" stroke="#2A1D14" stroke-width="2" stroke-linejoin="round" stroke-linecap="round"/><g fill="none" stroke="#2A1D14" stroke-opacity=".35" stroke-width="1.5" stroke-linecap="round"><path d="M0,-15 C-3,-5 3,5 0,15"/><path d="M-6,-9 C-11,-6 -11,0 -7,2 C-12,4 -11,10 -6,11"/><path d="M6,-9 C11,-6 11,0 7,2 C12,4 11,10 6,11"/></g></g><g transform="translate(16.4,-24.3) rotate(338) scale(0.95)"><path d="M17.9,0.0 L18.7,1.4 L19.1,3.0 L18.8,4.4 L17.8,5.7 L16.3,6.7 L14.7,7.5 L13.4,8.2 L12.4,9.1 L11.8,10.3 L11.3,11.8 L10.6,13.3 L9.7,14.6 L8.3,15.5 L6.5,15.8 L4.7,15.5 L3.0,14.9 L1.4,14.4 L0.0,14.2 L-1.4,14.4 L-3.0,14.9 L-4.7,15.5 L-6.5,15.8 L-8.3,15.5 L-9.7,14.6 L-10.6,13.3 L-11.3,11.8 L-11.8,10.3 L-12.4,9.1 L-13.4,8.2 L-14.7,7.5 L-16.3,6.7 L-17.8,5.7 L-18.8,4.4 L-19.1,3.0 L-18.7,1.4 L-17.9,0.0 L-16.8,-1.3 L-16.0,-2.5 L-15.7,-3.7 L-15.8,-5.0 L-16.0,-6.6 L-16.2,-8.2 L-15.9,-9.7 L-14.9,-11.0 L-13.5,-11.8 L-11.7,-12.2 L-9.8,-12.3 L-8.2,-12.4 L-6.8,-12.8 L-5.7,-13.6 L-4.5,-14.7 L-3.2,-15.9 L-1.7,-16.8 L-0.0,-17.1 L1.7,-16.8 L3.2,-15.9 L4.5,-14.7 L5.7,-13.6 L6.8,-12.8 L8.2,-12.4 L9.8,-12.3 L11.7,-12.2 L13.5,-11.8 L14.9,-11.0 L15.9,-9.7 L16.2,-8.2 L16.0,-6.6 L15.8,-5.0 L15.7,-3.7 L16.0,-2.5 L16.8,-1.3 L17.8,-0.0Z" fill="#B9844F" stroke="#2A1D14" stroke-width="2" stroke-linejoin="round" stroke-linecap="round"/><g fill="none" stroke="#2A1D14" stroke-opacity=".35" stroke-width="1.5" stroke-linecap="round"><path d="M0,-15 C-3,-5 3,5 0,15"/><path d="M-6,-9 C-11,-6 -11,0 -7,2 C-12,4 -11,10 -6,11"/><path d="M6,-9 C11,-6 11,0 7,2 C12,4 11,10 6,11"/></g></g><g transform="translate(42.2,-24.2) rotate(292) scale(0.95)"><path d="M17.9,0.0 L18.7,1.4 L19.1,3.0 L18.8,4.4 L17.8,5.7 L16.3,6.7 L14.7,7.5 L13.4,8.2 L12.4,9.1 L11.8,10.3 L11.3,11.8 L10.6,13.3 L9.7,14.6 L8.3,15.5 L6.5,15.8 L4.7,15.5 L3.0,14.9 L1.4,14.4 L0.0,14.2 L-1.4,14.4 L-3.0,14.9 L-4.7,15.5 L-6.5,15.8 L-8.3,15.5 L-9.7,14.6 L-10.6,13.3 L-11.3,11.8 L-11.8,10.3 L-12.4,9.1 L-13.4,8.2 L-14.7,7.5 L-16.3,6.7 L-17.8,5.7 L-18.8,4.4 L-19.1,3.0 L-18.7,1.4 L-17.9,0.0 L-16.8,-1.3 L-16.0,-2.5 L-15.7,-3.7 L-15.8,-5.0 L-16.0,-6.6 L-16.2,-8.2 L-15.9,-9.7 L-14.9,-11.0 L-13.5,-11.8 L-11.7,-12.2 L-9.8,-12.3 L-8.2,-12.4 L-6.8,-12.8 L-5.7,-13.6 L-4.5,-14.7 L-3.2,-15.9 L-1.7,-16.8 L-0.0,-17.1 L1.7,-16.8 L3.2,-15.9 L4.5,-14.7 L5.7,-13.6 L6.8,-12.8 L8.2,-12.4 L9.8,-12.3 L11.7,-12.2 L13.5,-11.8 L14.9,-11.0 L15.9,-9.7 L16.2,-8.2 L16.0,-6.6 L15.8,-5.0 L15.7,-3.7 L16.0,-2.5 L16.8,-1.3 L17.8,-0.0Z" fill="#B9844F" stroke="#2A1D14" stroke-width="2" stroke-linejoin="round" stroke-linecap="round"/><g fill="none" stroke="#2A1D14" stroke-opacity=".35" stroke-width="1.5" stroke-linecap="round"><path d="M0,-15 C-3,-5 3,5 0,15"/><path d="M-6,-9 C-11,-6 -11,0 -7,2 C-12,4 -11,10 -6,11"/><path d="M6,-9 C11,-6 11,0 7,2 C12,4 11,10 6,11"/></g></g><g transform="translate(80.4,-26.8) rotate(125) scale(0.95)"><path d="M17.9,0.0 L18.7,1.4 L19.1,3.0 L18.8,4.4 L17.8,5.7 L16.3,6.7 L14.7,7.5 L13.4,8.2 L12.4,9.1 L11.8,10.3 L11.3,11.8 L10.6,13.3 L9.7,14.6 L8.3,15.5 L6.5,15.8 L4.7,15.5 L3.0,14.9 L1.4,14.4 L0.0,14.2 L-1.4,14.4 L-3.0,14.9 L-4.7,15.5 L-6.5,15.8 L-8.3,15.5 L-9.7,14.6 L-10.6,13.3 L-11.3,11.8 L-11.8,10.3 L-12.4,9.1 L-13.4,8.2 L-14.7,7.5 L-16.3,6.7 L-17.8,5.7 L-18.8,4.4 L-19.1,3.0 L-18.7,1.4 L-17.9,0.0 L-16.8,-1.3 L-16.0,-2.5 L-15.7,-3.7 L-15.8,-5.0 L-16.0,-6.6 L-16.2,-8.2 L-15.9,-9.7 L-14.9,-11.0 L-13.5,-11.8 L-11.7,-12.2 L-9.8,-12.3 L-8.2,-12.4 L-6.8,-12.8 L-5.7,-13.6 L-4.5,-14.7 L-3.2,-15.9 L-1.7,-16.8 L-0.0,-17.1 L1.7,-16.8 L3.2,-15.9 L4.5,-14.7 L5.7,-13.6 L6.8,-12.8 L8.2,-12.4 L9.8,-12.3 L11.7,-12.2 L13.5,-11.8 L14.9,-11.0 L15.9,-9.7 L16.2,-8.2 L16.0,-6.6 L15.8,-5.0 L15.7,-3.7 L16.0,-2.5 L16.8,-1.3 L17.8,-0.0Z" fill="#B9844F" stroke="#2A1D14" stroke-width="2" stroke-linejoin="round" stroke-linecap="round"/><g fill="none" stroke="#2A1D14" stroke-opacity=".35" stroke-width="1.5" stroke-linecap="round"><path d="M0,-15 C-3,-5 3,5 0,15"/><path d="M-6,-9 C-11,-6 -11,0 -7,2 C-12,4 -11,10 -6,11"/><path d="M6,-9 C11,-6 11,0 7,2 C12,4 11,10 6,11"/></g></g><g transform="translate(-62.2,-49.1) rotate(286) scale(0.95)"><path d="M17.9,0.0 L18.7,1.4 L19.1,3.0 L18.8,4.4 L17.8,5.7 L16.3,6.7 L14.7,7.5 L13.4,8.2 L12.4,9.1 L11.8,10.3 L11.3,11.8 L10.6,13.3 L9.7,14.6 L8.3,15.5 L6.5,15.8 L4.7,15.5 L3.0,14.9 L1.4,14.4 L0.0,14.2 L-1.4,14.4 L-3.0,14.9 L-4.7,15.5 L-6.5,15.8 L-8.3,15.5 L-9.7,14.6 L-10.6,13.3 L-11.3,11.8 L-11.8,10.3 L-12.4,9.1 L-13.4,8.2 L-14.7,7.5 L-16.3,6.7 L-17.8,5.7 L-18.8,4.4 L-19.1,3.0 L-18.7,1.4 L-17.9,0.0 L-16.8,-1.3 L-16.0,-2.5 L-15.7,-3.7 L-15.8,-5.0 L-16.0,-6.6 L-16.2,-8.2 L-15.9,-9.7 L-14.9,-11.0 L-13.5,-11.8 L-11.7,-12.2 L-9.8,-12.3 L-8.2,-12.4 L-6.8,-12.8 L-5.7,-13.6 L-4.5,-14.7 L-3.2,-15.9 L-1.7,-16.8 L-0.0,-17.1 L1.7,-16.8 L3.2,-15.9 L4.5,-14.7 L5.7,-13.6 L6.8,-12.8 L8.2,-12.4 L9.8,-12.3 L11.7,-12.2 L13.5,-11.8 L14.9,-11.0 L15.9,-9.7 L16.2,-8.2 L16.0,-6.6 L15.8,-5.0 L15.7,-3.7 L16.0,-2.5 L16.8,-1.3 L17.8,-0.0Z" fill="#B9844F" stroke="#2A1D14" stroke-width="2" stroke-linejoin="round" stroke-linecap="round"/><g fill="none" stroke="#2A1D14" stroke-opacity=".35" stroke-width="1.5" stroke-linecap="round"><path d="M0,-15 C-3,-5 3,5 0,15"/><path d="M-6,-9 C-11,-6 -11,0 -7,2 C-12,4 -11,10 -6,11"/><path d="M6,-9 C11,-6 11,0 7,2 C12,4 11,10 6,11"/></g></g><g transform="translate(-30.4,-51.7) rotate(205) scale(0.95)"><path d="M17.9,0.0 L18.7,1.4 L19.1,3.0 L18.8,4.4 L17.8,5.7 L16.3,6.7 L14.7,7.5 L13.4,8.2 L12.4,9.1 L11.8,10.3 L11.3,11.8 L10.6,13.3 L9.7,14.6 L8.3,15.5 L6.5,15.8 L4.7,15.5 L3.0,14.9 L1.4,14.4 L0.0,14.2 L-1.4,14.4 L-3.0,14.9 L-4.7,15.5 L-6.5,15.8 L-8.3,15.5 L-9.7,14.6 L-10.6,13.3 L-11.3,11.8 L-11.8,10.3 L-12.4,9.1 L-13.4,8.2 L-14.7,7.5 L-16.3,6.7 L-17.8,5.7 L-18.8,4.4 L-19.1,3.0 L-18.7,1.4 L-17.9,0.0 L-16.8,-1.3 L-16.0,-2.5 L-15.7,-3.7 L-15.8,-5.0 L-16.0,-6.6 L-16.2,-8.2 L-15.9,-9.7 L-14.9,-11.0 L-13.5,-11.8 L-11.7,-12.2 L-9.8,-12.3 L-8.2,-12.4 L-6.8,-12.8 L-5.7,-13.6 L-4.5,-14.7 L-3.2,-15.9 L-1.7,-16.8 L-0.0,-17.1 L1.7,-16.8 L3.2,-15.9 L4.5,-14.7 L5.7,-13.6 L6.8,-12.8 L8.2,-12.4 L9.8,-12.3 L11.7,-12.2 L13.5,-11.8 L14.9,-11.0 L15.9,-9.7 L16.2,-8.2 L16.0,-6.6 L15.8,-5.0 L15.7,-3.7 L16.0,-2.5 L16.8,-1.3 L17.8,-0.0Z" fill="#B9844F" stroke="#2A1D14" stroke-width="2" stroke-linejoin="round" stroke-linecap="round"/><g fill="none" stroke="#2A1D14" stroke-opacity=".35" stroke-width="1.5" stroke-linecap="round"><path d="M0,-15 C-3,-5 3,5 0,15"/><path d="M-6,-9 C-11,-6 -11,0 -7,2 C-12,4 -11,10 -6,11"/><path d="M6,-9 C11,-6 11,0 7,2 C12,4 11,10 6,11"/></g></g><g transform="translate(1.1,-52.7) rotate(52) scale(0.95)"><path d="M17.9,0.0 L18.7,1.4 L19.1,3.0 L18.8,4.4 L17.8,5.7 L16.3,6.7 L14.7,7.5 L13.4,8.2 L12.4,9.1 L11.8,10.3 L11.3,11.8 L10.6,13.3 L9.7,14.6 L8.3,15.5 L6.5,15.8 L4.7,15.5 L3.0,14.9 L1.4,14.4 L0.0,14.2 L-1.4,14.4 L-3.0,14.9 L-4.7,15.5 L-6.5,15.8 L-8.3,15.5 L-9.7,14.6 L-10.6,13.3 L-11.3,11.8 L-11.8,10.3 L-12.4,9.1 L-13.4,8.2 L-14.7,7.5 L-16.3,6.7 L-17.8,5.7 L-18.8,4.4 L-19.1,3.0 L-18.7,1.4 L-17.9,0.0 L-16.8,-1.3 L-16.0,-2.5 L-15.7,-3.7 L-15.8,-5.0 L-16.0,-6.6 L-16.2,-8.2 L-15.9,-9.7 L-14.9,-11.0 L-13.5,-11.8 L-11.7,-12.2 L-9.8,-12.3 L-8.2,-12.4 L-6.8,-12.8 L-5.7,-13.6 L-4.5,-14.7 L-3.2,-15.9 L-1.7,-16.8 L-0.0,-17.1 L1.7,-16.8 L3.2,-15.9 L4.5,-14.7 L5.7,-13.6 L6.8,-12.8 L8.2,-12.4 L9.8,-12.3 L11.7,-12.2 L13.5,-11.8 L14.9,-11.0 L15.9,-9.7 L16.2,-8.2 L16.0,-6.6 L15.8,-5.0 L15.7,-3.7 L16.0,-2.5 L16.8,-1.3 L17.8,-0.0Z" fill="#B9844F" stroke="#2A1D14" stroke-width="2" stroke-linejoin="round" stroke-linecap="round"/><g fill="none" stroke="#2A1D14" stroke-opacity=".35" stroke-width="1.5" stroke-linecap="round"><path d="M0,-15 C-3,-5 3,5 0,15"/><path d="M-6,-9 C-11,-6 -11,0 -7,2 C-12,4 -11,10 -6,11"/><path d="M6,-9 C11,-6 11,0 7,2 C12,4 11,10 6,11"/></g></g><g transform="translate(32.5,-51.5) rotate(135) scale(0.95)"><path d="M17.9,0.0 L18.7,1.4 L19.1,3.0 L18.8,4.4 L17.8,5.7 L16.3,6.7 L14.7,7.5 L13.4,8.2 L12.4,9.1 L11.8,10.3 L11.3,11.8 L10.6,13.3 L9.7,14.6 L8.3,15.5 L6.5,15.8 L4.7,15.5 L3.0,14.9 L1.4,14.4 L0.0,14.2 L-1.4,14.4 L-3.0,14.9 L-4.7,15.5 L-6.5,15.8 L-8.3,15.5 L-9.7,14.6 L-10.6,13.3 L-11.3,11.8 L-11.8,10.3 L-12.4,9.1 L-13.4,8.2 L-14.7,7.5 L-16.3,6.7 L-17.8,5.7 L-18.8,4.4 L-19.1,3.0 L-18.7,1.4 L-17.9,0.0 L-16.8,-1.3 L-16.0,-2.5 L-15.7,-3.7 L-15.8,-5.0 L-16.0,-6.6 L-16.2,-8.2 L-15.9,-9.7 L-14.9,-11.0 L-13.5,-11.8 L-11.7,-12.2 L-9.8,-12.3 L-8.2,-12.4 L-6.8,-12.8 L-5.7,-13.6 L-4.5,-14.7 L-3.2,-15.9 L-1.7,-16.8 L-0.0,-17.1 L1.7,-16.8 L3.2,-15.9 L4.5,-14.7 L5.7,-13.6 L6.8,-12.8 L8.2,-12.4 L9.8,-12.3 L11.7,-12.2 L13.5,-11.8 L14.9,-11.0 L15.9,-9.7 L16.2,-8.2 L16.0,-6.6 L15.8,-5.0 L15.7,-3.7 L16.0,-2.5 L16.8,-1.3 L17.8,-0.0Z" fill="#B9844F" stroke="#2A1D14" stroke-width="2" stroke-linejoin="round" stroke-linecap="round"/><g fill="none" stroke="#2A1D14" stroke-opacity=".35" stroke-width="1.5" stroke-linecap="round"><path d="M0,-15 C-3,-5 3,5 0,15"/><path d="M-6,-9 C-11,-6 -11,0 -7,2 C-12,4 -11,10 -6,11"/><path d="M6,-9 C11,-6 11,0 7,2 C12,4 11,10 6,11"/></g></g><g transform="translate(62.5,-48.5) rotate(177) scale(0.95)"><path d="M17.9,0.0 L18.7,1.4 L19.1,3.0 L18.8,4.4 L17.8,5.7 L16.3,6.7 L14.7,7.5 L13.4,8.2 L12.4,9.1 L11.8,10.3 L11.3,11.8 L10.6,13.3 L9.7,14.6 L8.3,15.5 L6.5,15.8 L4.7,15.5 L3.0,14.9 L1.4,14.4 L0.0,14.2 L-1.4,14.4 L-3.0,14.9 L-4.7,15.5 L-6.5,15.8 L-8.3,15.5 L-9.7,14.6 L-10.6,13.3 L-11.3,11.8 L-11.8,10.3 L-12.4,9.1 L-13.4,8.2 L-14.7,7.5 L-16.3,6.7 L-17.8,5.7 L-18.8,4.4 L-19.1,3.0 L-18.7,1.4 L-17.9,0.0 L-16.8,-1.3 L-16.0,-2.5 L-15.7,-3.7 L-15.8,-5.0 L-16.0,-6.6 L-16.2,-8.2 L-15.9,-9.7 L-14.9,-11.0 L-13.5,-11.8 L-11.7,-12.2 L-9.8,-12.3 L-8.2,-12.4 L-6.8,-12.8 L-5.7,-13.6 L-4.5,-14.7 L-3.2,-15.9 L-1.7,-16.8 L-0.0,-17.1 L1.7,-16.8 L3.2,-15.9 L4.5,-14.7 L5.7,-13.6 L6.8,-12.8 L8.2,-12.4 L9.8,-12.3 L11.7,-12.2 L13.5,-11.8 L14.9,-11.0 L15.9,-9.7 L16.2,-8.2 L16.0,-6.6 L15.8,-5.0 L15.7,-3.7 L16.0,-2.5 L16.8,-1.3 L17.8,-0.0Z" fill="#B9844F" stroke="#2A1D14" stroke-width="2" stroke-linejoin="round" stroke-linecap="round"/><g fill="none" stroke="#2A1D14" stroke-opacity=".35" stroke-width="1.5" stroke-linecap="round"><path d="M0,-15 C-3,-5 3,5 0,15"/><path d="M-6,-9 C-11,-6 -11,0 -7,2 C-12,4 -11,10 -6,11"/><path d="M6,-9 C11,-6 11,0 7,2 C12,4 11,10 6,11"/></g></g><g transform="translate(93.4,-52.5) rotate(245) scale(0.95)"><path d="M17.9,0.0 L18.7,1.4 L19.1,3.0 L18.8,4.4 L17.8,5.7 L16.3,6.7 L14.7,7.5 L13.4,8.2 L12.4,9.1 L11.8,10.3 L11.3,11.8 L10.6,13.3 L9.7,14.6 L8.3,15.5 L6.5,15.8 L4.7,15.5 L3.0,14.9 L1.4,14.4 L0.0,14.2 L-1.4,14.4 L-3.0,14.9 L-4.7,15.5 L-6.5,15.8 L-8.3,15.5 L-9.7,14.6 L-10.6,13.3 L-11.3,11.8 L-11.8,10.3 L-12.4,9.1 L-13.4,8.2 L-14.7,7.5 L-16.3,6.7 L-17.8,5.7 L-18.8,4.4 L-19.1,3.0 L-18.7,1.4 L-17.9,0.0 L-16.8,-1.3 L-16.0,-2.5 L-15.7,-3.7 L-15.8,-5.0 L-16.0,-6.6 L-16.2,-8.2 L-15.9,-9.7 L-14.9,-11.0 L-13.5,-11.8 L-11.7,-12.2 L-9.8,-12.3 L-8.2,-12.4 L-6.8,-12.8 L-5.7,-13.6 L-4.5,-14.7 L-3.2,-15.9 L-1.7,-16.8 L-0.0,-17.1 L1.7,-16.8 L3.2,-15.9 L4.5,-14.7 L5.7,-13.6 L6.8,-12.8 L8.2,-12.4 L9.8,-12.3 L11.7,-12.2 L13.5,-11.8 L14.9,-11.0 L15.9,-9.7 L16.2,-8.2 L16.0,-6.6 L15.8,-5.0 L15.7,-3.7 L16.0,-2.5 L16.8,-1.3 L17.8,-0.0Z" fill="#B9844F" stroke="#2A1D14" stroke-width="2" stroke-linejoin="round" stroke-linecap="round"/><g fill="none" stroke="#2A1D14" stroke-opacity=".35" stroke-width="1.5" stroke-linecap="round"><path d="M0,-15 C-3,-5 3,5 0,15"/><path d="M-6,-9 C-11,-6 -11,0 -7,2 C-12,4 -11,10 -6,11"/><path d="M6,-9 C11,-6 11,0 7,2 C12,4 11,10 6,11"/></g></g><g transform="translate(-74.4,-77.7) rotate(302) scale(0.95)"><path d="M17.9,0.0 L18.7,1.4 L19.1,3.0 L18.8,4.4 L17.8,5.7 L16.3,6.7 L14.7,7.5 L13.4,8.2 L12.4,9.1 L11.8,10.3 L11.3,11.8 L10.6,13.3 L9.7,14.6 L8.3,15.5 L6.5,15.8 L4.7,15.5 L3.0,14.9 L1.4,14.4 L0.0,14.2 L-1.4,14.4 L-3.0,14.9 L-4.7,15.5 L-6.5,15.8 L-8.3,15.5 L-9.7,14.6 L-10.6,13.3 L-11.3,11.8 L-11.8,10.3 L-12.4,9.1 L-13.4,8.2 L-14.7,7.5 L-16.3,6.7 L-17.8,5.7 L-18.8,4.4 L-19.1,3.0 L-18.7,1.4 L-17.9,0.0 L-16.8,-1.3 L-16.0,-2.5 L-15.7,-3.7 L-15.8,-5.0 L-16.0,-6.6 L-16.2,-8.2 L-15.9,-9.7 L-14.9,-11.0 L-13.5,-11.8 L-11.7,-12.2 L-9.8,-12.3 L-8.2,-12.4 L-6.8,-12.8 L-5.7,-13.6 L-4.5,-14.7 L-3.2,-15.9 L-1.7,-16.8 L-0.0,-17.1 L1.7,-16.8 L3.2,-15.9 L4.5,-14.7 L5.7,-13.6 L6.8,-12.8 L8.2,-12.4 L9.8,-12.3 L11.7,-12.2 L13.5,-11.8 L14.9,-11.0 L15.9,-9.7 L16.2,-8.2 L16.0,-6.6 L15.8,-5.0 L15.7,-3.7 L16.0,-2.5 L16.8,-1.3 L17.8,-0.0Z" fill="#B9844F" stroke="#2A1D14" stroke-width="2" stroke-linejoin="round" stroke-linecap="round"/><g fill="none" stroke="#2A1D14" stroke-opacity=".35" stroke-width="1.5" stroke-linecap="round"><path d="M0,-15 C-3,-5 3,5 0,15"/><path d="M-6,-9 C-11,-6 -11,0 -7,2 C-12,4 -11,10 -6,11"/><path d="M6,-9 C11,-6 11,0 7,2 C12,4 11,10 6,11"/></g></g><g transform="translate(-46.6,-80.7) rotate(267) scale(0.95)"><path d="M17.9,0.0 L18.7,1.4 L19.1,3.0 L18.8,4.4 L17.8,5.7 L16.3,6.7 L14.7,7.5 L13.4,8.2 L12.4,9.1 L11.8,10.3 L11.3,11.8 L10.6,13.3 L9.7,14.6 L8.3,15.5 L6.5,15.8 L4.7,15.5 L3.0,14.9 L1.4,14.4 L0.0,14.2 L-1.4,14.4 L-3.0,14.9 L-4.7,15.5 L-6.5,15.8 L-8.3,15.5 L-9.7,14.6 L-10.6,13.3 L-11.3,11.8 L-11.8,10.3 L-12.4,9.1 L-13.4,8.2 L-14.7,7.5 L-16.3,6.7 L-17.8,5.7 L-18.8,4.4 L-19.1,3.0 L-18.7,1.4 L-17.9,0.0 L-16.8,-1.3 L-16.0,-2.5 L-15.7,-3.7 L-15.8,-5.0 L-16.0,-6.6 L-16.2,-8.2 L-15.9,-9.7 L-14.9,-11.0 L-13.5,-11.8 L-11.7,-12.2 L-9.8,-12.3 L-8.2,-12.4 L-6.8,-12.8 L-5.7,-13.6 L-4.5,-14.7 L-3.2,-15.9 L-1.7,-16.8 L-0.0,-17.1 L1.7,-16.8 L3.2,-15.9 L4.5,-14.7 L5.7,-13.6 L6.8,-12.8 L8.2,-12.4 L9.8,-12.3 L11.7,-12.2 L13.5,-11.8 L14.9,-11.0 L15.9,-9.7 L16.2,-8.2 L16.0,-6.6 L15.8,-5.0 L15.7,-3.7 L16.0,-2.5 L16.8,-1.3 L17.8,-0.0Z" fill="#B9844F" stroke="#2A1D14" stroke-width="2" stroke-linejoin="round" stroke-linecap="round"/><g fill="none" stroke="#2A1D14" stroke-opacity=".35" stroke-width="1.5" stroke-linecap="round"><path d="M0,-15 C-3,-5 3,5 0,15"/><path d="M-6,-9 C-11,-6 -11,0 -7,2 C-12,4 -11,10 -6,11"/><path d="M6,-9 C11,-6 11,0 7,2 C12,4 11,10 6,11"/></g></g><g transform="translate(-17.2,-75.6) rotate(33) scale(0.95)"><path d="M17.9,0.0 L18.7,1.4 L19.1,3.0 L18.8,4.4 L17.8,5.7 L16.3,6.7 L14.7,7.5 L13.4,8.2 L12.4,9.1 L11.8,10.3 L11.3,11.8 L10.6,13.3 L9.7,14.6 L8.3,15.5 L6.5,15.8 L4.7,15.5 L3.0,14.9 L1.4,14.4 L0.0,14.2 L-1.4,14.4 L-3.0,14.9 L-4.7,15.5 L-6.5,15.8 L-8.3,15.5 L-9.7,14.6 L-10.6,13.3 L-11.3,11.8 L-11.8,10.3 L-12.4,9.1 L-13.4,8.2 L-14.7,7.5 L-16.3,6.7 L-17.8,5.7 L-18.8,4.4 L-19.1,3.0 L-18.7,1.4 L-17.9,0.0 L-16.8,-1.3 L-16.0,-2.5 L-15.7,-3.7 L-15.8,-5.0 L-16.0,-6.6 L-16.2,-8.2 L-15.9,-9.7 L-14.9,-11.0 L-13.5,-11.8 L-11.7,-12.2 L-9.8,-12.3 L-8.2,-12.4 L-6.8,-12.8 L-5.7,-13.6 L-4.5,-14.7 L-3.2,-15.9 L-1.7,-16.8 L-0.0,-17.1 L1.7,-16.8 L3.2,-15.9 L4.5,-14.7 L5.7,-13.6 L6.8,-12.8 L8.2,-12.4 L9.8,-12.3 L11.7,-12.2 L13.5,-11.8 L14.9,-11.0 L15.9,-9.7 L16.2,-8.2 L16.0,-6.6 L15.8,-5.0 L15.7,-3.7 L16.0,-2.5 L16.8,-1.3 L17.8,-0.0Z" fill="#B9844F" stroke="#2A1D14" stroke-width="2" stroke-linejoin="round" stroke-linecap="round"/><g fill="none" stroke="#2A1D14" stroke-opacity=".35" stroke-width="1.5" stroke-linecap="round"><path d="M0,-15 C-3,-5 3,5 0,15"/><path d="M-6,-9 C-11,-6 -11,0 -7,2 C-12,4 -11,10 -6,11"/><path d="M6,-9 C11,-6 11,0 7,2 C12,4 11,10 6,11"/></g></g><g transform="translate(14.9,-79.4) rotate(43) scale(0.95)"><path d="M17.9,0.0 L18.7,1.4 L19.1,3.0 L18.8,4.4 L17.8,5.7 L16.3,6.7 L14.7,7.5 L13.4,8.2 L12.4,9.1 L11.8,10.3 L11.3,11.8 L10.6,13.3 L9.7,14.6 L8.3,15.5 L6.5,15.8 L4.7,15.5 L3.0,14.9 L1.4,14.4 L0.0,14.2 L-1.4,14.4 L-3.0,14.9 L-4.7,15.5 L-6.5,15.8 L-8.3,15.5 L-9.7,14.6 L-10.6,13.3 L-11.3,11.8 L-11.8,10.3 L-12.4,9.1 L-13.4,8.2 L-14.7,7.5 L-16.3,6.7 L-17.8,5.7 L-18.8,4.4 L-19.1,3.0 L-18.7,1.4 L-17.9,0.0 L-16.8,-1.3 L-16.0,-2.5 L-15.7,-3.7 L-15.8,-5.0 L-16.0,-6.6 L-16.2,-8.2 L-15.9,-9.7 L-14.9,-11.0 L-13.5,-11.8 L-11.7,-12.2 L-9.8,-12.3 L-8.2,-12.4 L-6.8,-12.8 L-5.7,-13.6 L-4.5,-14.7 L-3.2,-15.9 L-1.7,-16.8 L-0.0,-17.1 L1.7,-16.8 L3.2,-15.9 L4.5,-14.7 L5.7,-13.6 L6.8,-12.8 L8.2,-12.4 L9.8,-12.3 L11.7,-12.2 L13.5,-11.8 L14.9,-11.0 L15.9,-9.7 L16.2,-8.2 L16.0,-6.6 L15.8,-5.0 L15.7,-3.7 L16.0,-2.5 L16.8,-1.3 L17.8,-0.0Z" fill="#B9844F" stroke="#2A1D14" stroke-width="2" stroke-linejoin="round" stroke-linecap="round"/><g fill="none" stroke="#2A1D14" stroke-opacity=".35" stroke-width="1.5" stroke-linecap="round"><path d="M0,-15 C-3,-5 3,5 0,15"/><path d="M-6,-9 C-11,-6 -11,0 -7,2 C-12,4 -11,10 -6,11"/><path d="M6,-9 C11,-6 11,0 7,2 C12,4 11,10 6,11"/></g></g><g transform="translate(43.8,-75.9) rotate(327) scale(0.95)"><path d="M17.9,0.0 L18.7,1.4 L19.1,3.0 L18.8,4.4 L17.8,5.7 L16.3,6.7 L14.7,7.5 L13.4,8.2 L12.4,9.1 L11.8,10.3 L11.3,11.8 L10.6,13.3 L9.7,14.6 L8.3,15.5 L6.5,15.8 L4.7,15.5 L3.0,14.9 L1.4,14.4 L0.0,14.2 L-1.4,14.4 L-3.0,14.9 L-4.7,15.5 L-6.5,15.8 L-8.3,15.5 L-9.7,14.6 L-10.6,13.3 L-11.3,11.8 L-11.8,10.3 L-12.4,9.1 L-13.4,8.2 L-14.7,7.5 L-16.3,6.7 L-17.8,5.7 L-18.8,4.4 L-19.1,3.0 L-18.7,1.4 L-17.9,0.0 L-16.8,-1.3 L-16.0,-2.5 L-15.7,-3.7 L-15.8,-5.0 L-16.0,-6.6 L-16.2,-8.2 L-15.9,-9.7 L-14.9,-11.0 L-13.5,-11.8 L-11.7,-12.2 L-9.8,-12.3 L-8.2,-12.4 L-6.8,-12.8 L-5.7,-13.6 L-4.5,-14.7 L-3.2,-15.9 L-1.7,-16.8 L-0.0,-17.1 L1.7,-16.8 L3.2,-15.9 L4.5,-14.7 L5.7,-13.6 L6.8,-12.8 L8.2,-12.4 L9.8,-12.3 L11.7,-12.2 L13.5,-11.8 L14.9,-11.0 L15.9,-9.7 L16.2,-8.2 L16.0,-6.6 L15.8,-5.0 L15.7,-3.7 L16.0,-2.5 L16.8,-1.3 L17.8,-0.0Z" fill="#B9844F" stroke="#2A1D14" stroke-width="2" stroke-linejoin="round" stroke-linecap="round"/><g fill="none" stroke="#2A1D14" stroke-opacity=".35" stroke-width="1.5" stroke-linecap="round"><path d="M0,-15 C-3,-5 3,5 0,15"/><path d="M-6,-9 C-11,-6 -11,0 -7,2 C-12,4 -11,10 -6,11"/><path d="M6,-9 C11,-6 11,0 7,2 C12,4 11,10 6,11"/></g></g><g transform="translate(79.3,-77.9) rotate(110) scale(0.95)"><path d="M17.9,0.0 L18.7,1.4 L19.1,3.0 L18.8,4.4 L17.8,5.7 L16.3,6.7 L14.7,7.5 L13.4,8.2 L12.4,9.1 L11.8,10.3 L11.3,11.8 L10.6,13.3 L9.7,14.6 L8.3,15.5 L6.5,15.8 L4.7,15.5 L3.0,14.9 L1.4,14.4 L0.0,14.2 L-1.4,14.4 L-3.0,14.9 L-4.7,15.5 L-6.5,15.8 L-8.3,15.5 L-9.7,14.6 L-10.6,13.3 L-11.3,11.8 L-11.8,10.3 L-12.4,9.1 L-13.4,8.2 L-14.7,7.5 L-16.3,6.7 L-17.8,5.7 L-18.8,4.4 L-19.1,3.0 L-18.7,1.4 L-17.9,0.0 L-16.8,-1.3 L-16.0,-2.5 L-15.7,-3.7 L-15.8,-5.0 L-16.0,-6.6 L-16.2,-8.2 L-15.9,-9.7 L-14.9,-11.0 L-13.5,-11.8 L-11.7,-12.2 L-9.8,-12.3 L-8.2,-12.4 L-6.8,-12.8 L-5.7,-13.6 L-4.5,-14.7 L-3.2,-15.9 L-1.7,-16.8 L-0.0,-17.1 L1.7,-16.8 L3.2,-15.9 L4.5,-14.7 L5.7,-13.6 L6.8,-12.8 L8.2,-12.4 L9.8,-12.3 L11.7,-12.2 L13.5,-11.8 L14.9,-11.0 L15.9,-9.7 L16.2,-8.2 L16.0,-6.6 L15.8,-5.0 L15.7,-3.7 L16.0,-2.5 L16.8,-1.3 L17.8,-0.0Z" fill="#B9844F" stroke="#2A1D14" stroke-width="2" stroke-linejoin="round" stroke-linecap="round"/><g fill="none" stroke="#2A1D14" stroke-opacity=".35" stroke-width="1.5" stroke-linecap="round"><path d="M0,-15 C-3,-5 3,5 0,15"/><path d="M-6,-9 C-11,-6 -11,0 -7,2 C-12,4 -11,10 -6,11"/><path d="M6,-9 C11,-6 11,0 7,2 C12,4 11,10 6,11"/></g></g><g transform="translate(-63.5,-104.5) rotate(169) scale(0.95)"><path d="M17.9,0.0 L18.7,1.4 L19.1,3.0 L18.8,4.4 L17.8,5.7 L16.3,6.7 L14.7,7.5 L13.4,8.2 L12.4,9.1 L11.8,10.3 L11.3,11.8 L10.6,13.3 L9.7,14.6 L8.3,15.5 L6.5,15.8 L4.7,15.5 L3.0,14.9 L1.4,14.4 L0.0,14.2 L-1.4,14.4 L-3.0,14.9 L-4.7,15.5 L-6.5,15.8 L-8.3,15.5 L-9.7,14.6 L-10.6,13.3 L-11.3,11.8 L-11.8,10.3 L-12.4,9.1 L-13.4,8.2 L-14.7,7.5 L-16.3,6.7 L-17.8,5.7 L-18.8,4.4 L-19.1,3.0 L-18.7,1.4 L-17.9,0.0 L-16.8,-1.3 L-16.0,-2.5 L-15.7,-3.7 L-15.8,-5.0 L-16.0,-6.6 L-16.2,-8.2 L-15.9,-9.7 L-14.9,-11.0 L-13.5,-11.8 L-11.7,-12.2 L-9.8,-12.3 L-8.2,-12.4 L-6.8,-12.8 L-5.7,-13.6 L-4.5,-14.7 L-3.2,-15.9 L-1.7,-16.8 L-0.0,-17.1 L1.7,-16.8 L3.2,-15.9 L4.5,-14.7 L5.7,-13.6 L6.8,-12.8 L8.2,-12.4 L9.8,-12.3 L11.7,-12.2 L13.5,-11.8 L14.9,-11.0 L15.9,-9.7 L16.2,-8.2 L16.0,-6.6 L15.8,-5.0 L15.7,-3.7 L16.0,-2.5 L16.8,-1.3 L17.8,-0.0Z" fill="#B9844F" stroke="#2A1D14" stroke-width="2" stroke-linejoin="round" stroke-linecap="round"/><g fill="none" stroke="#2A1D14" stroke-opacity=".35" stroke-width="1.5" stroke-linecap="round"><path d="M0,-15 C-3,-5 3,5 0,15"/><path d="M-6,-9 C-11,-6 -11,0 -7,2 C-12,4 -11,10 -6,11"/><path d="M6,-9 C11,-6 11,0 7,2 C12,4 11,10 6,11"/></g></g><g transform="translate(-28.7,-102.4) rotate(270) scale(0.95)"><path d="M17.9,0.0 L18.7,1.4 L19.1,3.0 L18.8,4.4 L17.8,5.7 L16.3,6.7 L14.7,7.5 L13.4,8.2 L12.4,9.1 L11.8,10.3 L11.3,11.8 L10.6,13.3 L9.7,14.6 L8.3,15.5 L6.5,15.8 L4.7,15.5 L3.0,14.9 L1.4,14.4 L0.0,14.2 L-1.4,14.4 L-3.0,14.9 L-4.7,15.5 L-6.5,15.8 L-8.3,15.5 L-9.7,14.6 L-10.6,13.3 L-11.3,11.8 L-11.8,10.3 L-12.4,9.1 L-13.4,8.2 L-14.7,7.5 L-16.3,6.7 L-17.8,5.7 L-18.8,4.4 L-19.1,3.0 L-18.7,1.4 L-17.9,0.0 L-16.8,-1.3 L-16.0,-2.5 L-15.7,-3.7 L-15.8,-5.0 L-16.0,-6.6 L-16.2,-8.2 L-15.9,-9.7 L-14.9,-11.0 L-13.5,-11.8 L-11.7,-12.2 L-9.8,-12.3 L-8.2,-12.4 L-6.8,-12.8 L-5.7,-13.6 L-4.5,-14.7 L-3.2,-15.9 L-1.7,-16.8 L-0.0,-17.1 L1.7,-16.8 L3.2,-15.9 L4.5,-14.7 L5.7,-13.6 L6.8,-12.8 L8.2,-12.4 L9.8,-12.3 L11.7,-12.2 L13.5,-11.8 L14.9,-11.0 L15.9,-9.7 L16.2,-8.2 L16.0,-6.6 L15.8,-5.0 L15.7,-3.7 L16.0,-2.5 L16.8,-1.3 L17.8,-0.0Z" fill="#B9844F" stroke="#2A1D14" stroke-width="2" stroke-linejoin="round" stroke-linecap="round"/><g fill="none" stroke="#2A1D14" stroke-opacity=".35" stroke-width="1.5" stroke-linecap="round"><path d="M0,-15 C-3,-5 3,5 0,15"/><path d="M-6,-9 C-11,-6 -11,0 -7,2 C-12,4 -11,10 -6,11"/><path d="M6,-9 C11,-6 11,0 7,2 C12,4 11,10 6,11"/></g></g><g transform="translate(2.3,-104.3) rotate(146) scale(0.95)"><path d="M17.9,0.0 L18.7,1.4 L19.1,3.0 L18.8,4.4 L17.8,5.7 L16.3,6.7 L14.7,7.5 L13.4,8.2 L12.4,9.1 L11.8,10.3 L11.3,11.8 L10.6,13.3 L9.7,14.6 L8.3,15.5 L6.5,15.8 L4.7,15.5 L3.0,14.9 L1.4,14.4 L0.0,14.2 L-1.4,14.4 L-3.0,14.9 L-4.7,15.5 L-6.5,15.8 L-8.3,15.5 L-9.7,14.6 L-10.6,13.3 L-11.3,11.8 L-11.8,10.3 L-12.4,9.1 L-13.4,8.2 L-14.7,7.5 L-16.3,6.7 L-17.8,5.7 L-18.8,4.4 L-19.1,3.0 L-18.7,1.4 L-17.9,0.0 L-16.8,-1.3 L-16.0,-2.5 L-15.7,-3.7 L-15.8,-5.0 L-16.0,-6.6 L-16.2,-8.2 L-15.9,-9.7 L-14.9,-11.0 L-13.5,-11.8 L-11.7,-12.2 L-9.8,-12.3 L-8.2,-12.4 L-6.8,-12.8 L-5.7,-13.6 L-4.5,-14.7 L-3.2,-15.9 L-1.7,-16.8 L-0.0,-17.1 L1.7,-16.8 L3.2,-15.9 L4.5,-14.7 L5.7,-13.6 L6.8,-12.8 L8.2,-12.4 L9.8,-12.3 L11.7,-12.2 L13.5,-11.8 L14.9,-11.0 L15.9,-9.7 L16.2,-8.2 L16.0,-6.6 L15.8,-5.0 L15.7,-3.7 L16.0,-2.5 L16.8,-1.3 L17.8,-0.0Z" fill="#B9844F" stroke="#2A1D14" stroke-width="2" stroke-linejoin="round" stroke-linecap="round"/><g fill="none" stroke="#2A1D14" stroke-opacity=".35" stroke-width="1.5" stroke-linecap="round"><path d="M0,-15 C-3,-5 3,5 0,15"/><path d="M-6,-9 C-11,-6 -11,0 -7,2 C-12,4 -11,10 -6,11"/><path d="M6,-9 C11,-6 11,0 7,2 C12,4 11,10 6,11"/></g></g><g transform="translate(32.6,-107.6) rotate(10) scale(0.95)"><path d="M17.9,0.0 L18.7,1.4 L19.1,3.0 L18.8,4.4 L17.8,5.7 L16.3,6.7 L14.7,7.5 L13.4,8.2 L12.4,9.1 L11.8,10.3 L11.3,11.8 L10.6,13.3 L9.7,14.6 L8.3,15.5 L6.5,15.8 L4.7,15.5 L3.0,14.9 L1.4,14.4 L0.0,14.2 L-1.4,14.4 L-3.0,14.9 L-4.7,15.5 L-6.5,15.8 L-8.3,15.5 L-9.7,14.6 L-10.6,13.3 L-11.3,11.8 L-11.8,10.3 L-12.4,9.1 L-13.4,8.2 L-14.7,7.5 L-16.3,6.7 L-17.8,5.7 L-18.8,4.4 L-19.1,3.0 L-18.7,1.4 L-17.9,0.0 L-16.8,-1.3 L-16.0,-2.5 L-15.7,-3.7 L-15.8,-5.0 L-16.0,-6.6 L-16.2,-8.2 L-15.9,-9.7 L-14.9,-11.0 L-13.5,-11.8 L-11.7,-12.2 L-9.8,-12.3 L-8.2,-12.4 L-6.8,-12.8 L-5.7,-13.6 L-4.5,-14.7 L-3.2,-15.9 L-1.7,-16.8 L-0.0,-17.1 L1.7,-16.8 L3.2,-15.9 L4.5,-14.7 L5.7,-13.6 L6.8,-12.8 L8.2,-12.4 L9.8,-12.3 L11.7,-12.2 L13.5,-11.8 L14.9,-11.0 L15.9,-9.7 L16.2,-8.2 L16.0,-6.6 L15.8,-5.0 L15.7,-3.7 L16.0,-2.5 L16.8,-1.3 L17.8,-0.0Z" fill="#B9844F" stroke="#2A1D14" stroke-width="2" stroke-linejoin="round" stroke-linecap="round"/><g fill="none" stroke="#2A1D14" stroke-opacity=".35" stroke-width="1.5" stroke-linecap="round"><path d="M0,-15 C-3,-5 3,5 0,15"/><path d="M-6,-9 C-11,-6 -11,0 -7,2 C-12,4 -11,10 -6,11"/><path d="M6,-9 C11,-6 11,0 7,2 C12,4 11,10 6,11"/></g></g><g transform="translate(64.4,-103.9) rotate(307) scale(0.95)"><path d="M17.9,0.0 L18.7,1.4 L19.1,3.0 L18.8,4.4 L17.8,5.7 L16.3,6.7 L14.7,7.5 L13.4,8.2 L12.4,9.1 L11.8,10.3 L11.3,11.8 L10.6,13.3 L9.7,14.6 L8.3,15.5 L6.5,15.8 L4.7,15.5 L3.0,14.9 L1.4,14.4 L0.0,14.2 L-1.4,14.4 L-3.0,14.9 L-4.7,15.5 L-6.5,15.8 L-8.3,15.5 L-9.7,14.6 L-10.6,13.3 L-11.3,11.8 L-11.8,10.3 L-12.4,9.1 L-13.4,8.2 L-14.7,7.5 L-16.3,6.7 L-17.8,5.7 L-18.8,4.4 L-19.1,3.0 L-18.7,1.4 L-17.9,0.0 L-16.8,-1.3 L-16.0,-2.5 L-15.7,-3.7 L-15.8,-5.0 L-16.0,-6.6 L-16.2,-8.2 L-15.9,-9.7 L-14.9,-11.0 L-13.5,-11.8 L-11.7,-12.2 L-9.8,-12.3 L-8.2,-12.4 L-6.8,-12.8 L-5.7,-13.6 L-4.5,-14.7 L-3.2,-15.9 L-1.7,-16.8 L-0.0,-17.1 L1.7,-16.8 L3.2,-15.9 L4.5,-14.7 L5.7,-13.6 L6.8,-12.8 L8.2,-12.4 L9.8,-12.3 L11.7,-12.2 L13.5,-11.8 L14.9,-11.0 L15.9,-9.7 L16.2,-8.2 L16.0,-6.6 L15.8,-5.0 L15.7,-3.7 L16.0,-2.5 L16.8,-1.3 L17.8,-0.0Z" fill="#B9844F" stroke="#2A1D14" stroke-width="2" stroke-linejoin="round" stroke-linecap="round"/><g fill="none" stroke="#2A1D14" stroke-opacity=".35" stroke-width="1.5" stroke-linecap="round"><path d="M0,-15 C-3,-5 3,5 0,15"/><path d="M-6,-9 C-11,-6 -11,0 -7,2 C-12,4 -11,10 -6,11"/><path d="M6,-9 C11,-6 11,0 7,2 C12,4 11,10 6,11"/></g></g><g transform="translate(91.6,-106.7) rotate(181) scale(0.95)"><path d="M17.9,0.0 L18.7,1.4 L19.1,3.0 L18.8,4.4 L17.8,5.7 L16.3,6.7 L14.7,7.5 L13.4,8.2 L12.4,9.1 L11.8,10.3 L11.3,11.8 L10.6,13.3 L9.7,14.6 L8.3,15.5 L6.5,15.8 L4.7,15.5 L3.0,14.9 L1.4,14.4 L0.0,14.2 L-1.4,14.4 L-3.0,14.9 L-4.7,15.5 L-6.5,15.8 L-8.3,15.5 L-9.7,14.6 L-10.6,13.3 L-11.3,11.8 L-11.8,10.3 L-12.4,9.1 L-13.4,8.2 L-14.7,7.5 L-16.3,6.7 L-17.8,5.7 L-18.8,4.4 L-19.1,3.0 L-18.7,1.4 L-17.9,0.0 L-16.8,-1.3 L-16.0,-2.5 L-15.7,-3.7 L-15.8,-5.0 L-16.0,-6.6 L-16.2,-8.2 L-15.9,-9.7 L-14.9,-11.0 L-13.5,-11.8 L-11.7,-12.2 L-9.8,-12.3 L-8.2,-12.4 L-6.8,-12.8 L-5.7,-13.6 L-4.5,-14.7 L-3.2,-15.9 L-1.7,-16.8 L-0.0,-17.1 L1.7,-16.8 L3.2,-15.9 L4.5,-14.7 L5.7,-13.6 L6.8,-12.8 L8.2,-12.4 L9.8,-12.3 L11.7,-12.2 L13.5,-11.8 L14.9,-11.0 L15.9,-9.7 L16.2,-8.2 L16.0,-6.6 L15.8,-5.0 L15.7,-3.7 L16.0,-2.5 L16.8,-1.3 L17.8,-0.0Z" fill="#B9844F" stroke="#2A1D14" stroke-width="2" stroke-linejoin="round" stroke-linecap="round"/><g fill="none" stroke="#2A1D14" stroke-opacity=".35" stroke-width="1.5" stroke-linecap="round"><path d="M0,-15 C-3,-5 3,5 0,15"/><path d="M-6,-9 C-11,-6 -11,0 -7,2 C-12,4 -11,10 -6,11"/><path d="M6,-9 C11,-6 11,0 7,2 C12,4 11,10 6,11"/></g></g><g transform="translate(-81.9,-134.9) rotate(241) scale(0.95)"><path d="M17.9,0.0 L18.7,1.4 L19.1,3.0 L18.8,4.4 L17.8,5.7 L16.3,6.7 L14.7,7.5 L13.4,8.2 L12.4,9.1 L11.8,10.3 L11.3,11.8 L10.6,13.3 L9.7,14.6 L8.3,15.5 L6.5,15.8 L4.7,15.5 L3.0,14.9 L1.4,14.4 L0.0,14.2 L-1.4,14.4 L-3.0,14.9 L-4.7,15.5 L-6.5,15.8 L-8.3,15.5 L-9.7,14.6 L-10.6,13.3 L-11.3,11.8 L-11.8,10.3 L-12.4,9.1 L-13.4,8.2 L-14.7,7.5 L-16.3,6.7 L-17.8,5.7 L-18.8,4.4 L-19.1,3.0 L-18.7,1.4 L-17.9,0.0 L-16.8,-1.3 L-16.0,-2.5 L-15.7,-3.7 L-15.8,-5.0 L-16.0,-6.6 L-16.2,-8.2 L-15.9,-9.7 L-14.9,-11.0 L-13.5,-11.8 L-11.7,-12.2 L-9.8,-12.3 L-8.2,-12.4 L-6.8,-12.8 L-5.7,-13.6 L-4.5,-14.7 L-3.2,-15.9 L-1.7,-16.8 L-0.0,-17.1 L1.7,-16.8 L3.2,-15.9 L4.5,-14.7 L5.7,-13.6 L6.8,-12.8 L8.2,-12.4 L9.8,-12.3 L11.7,-12.2 L13.5,-11.8 L14.9,-11.0 L15.9,-9.7 L16.2,-8.2 L16.0,-6.6 L15.8,-5.0 L15.7,-3.7 L16.0,-2.5 L16.8,-1.3 L17.8,-0.0Z" fill="#B9844F" stroke="#2A1D14" stroke-width="2" stroke-linejoin="round" stroke-linecap="round"/><g fill="none" stroke="#2A1D14" stroke-opacity=".35" stroke-width="1.5" stroke-linecap="round"><path d="M0,-15 C-3,-5 3,5 0,15"/><path d="M-6,-9 C-11,-6 -11,0 -7,2 C-12,4 -11,10 -6,11"/><path d="M6,-9 C11,-6 11,0 7,2 C12,4 11,10 6,11"/></g></g><g transform="translate(-45.4,-132.7) rotate(299) scale(0.95)"><path d="M17.9,0.0 L18.7,1.4 L19.1,3.0 L18.8,4.4 L17.8,5.7 L16.3,6.7 L14.7,7.5 L13.4,8.2 L12.4,9.1 L11.8,10.3 L11.3,11.8 L10.6,13.3 L9.7,14.6 L8.3,15.5 L6.5,15.8 L4.7,15.5 L3.0,14.9 L1.4,14.4 L0.0,14.2 L-1.4,14.4 L-3.0,14.9 L-4.7,15.5 L-6.5,15.8 L-8.3,15.5 L-9.7,14.6 L-10.6,13.3 L-11.3,11.8 L-11.8,10.3 L-12.4,9.1 L-13.4,8.2 L-14.7,7.5 L-16.3,6.7 L-17.8,5.7 L-18.8,4.4 L-19.1,3.0 L-18.7,1.4 L-17.9,0.0 L-16.8,-1.3 L-16.0,-2.5 L-15.7,-3.7 L-15.8,-5.0 L-16.0,-6.6 L-16.2,-8.2 L-15.9,-9.7 L-14.9,-11.0 L-13.5,-11.8 L-11.7,-12.2 L-9.8,-12.3 L-8.2,-12.4 L-6.8,-12.8 L-5.7,-13.6 L-4.5,-14.7 L-3.2,-15.9 L-1.7,-16.8 L-0.0,-17.1 L1.7,-16.8 L3.2,-15.9 L4.5,-14.7 L5.7,-13.6 L6.8,-12.8 L8.2,-12.4 L9.8,-12.3 L11.7,-12.2 L13.5,-11.8 L14.9,-11.0 L15.9,-9.7 L16.2,-8.2 L16.0,-6.6 L15.8,-5.0 L15.7,-3.7 L16.0,-2.5 L16.8,-1.3 L17.8,-0.0Z" fill="#B9844F" stroke="#2A1D14" stroke-width="2" stroke-linejoin="round" stroke-linecap="round"/><g fill="none" stroke="#2A1D14" stroke-opacity=".35" stroke-width="1.5" stroke-linecap="round"><path d="M0,-15 C-3,-5 3,5 0,15"/><path d="M-6,-9 C-11,-6 -11,0 -7,2 C-12,4 -11,10 -6,11"/><path d="M6,-9 C11,-6 11,0 7,2 C12,4 11,10 6,11"/></g></g><g transform="translate(-17.6,-130.2) rotate(241) scale(0.95)"><path d="M17.9,0.0 L18.7,1.4 L19.1,3.0 L18.8,4.4 L17.8,5.7 L16.3,6.7 L14.7,7.5 L13.4,8.2 L12.4,9.1 L11.8,10.3 L11.3,11.8 L10.6,13.3 L9.7,14.6 L8.3,15.5 L6.5,15.8 L4.7,15.5 L3.0,14.9 L1.4,14.4 L0.0,14.2 L-1.4,14.4 L-3.0,14.9 L-4.7,15.5 L-6.5,15.8 L-8.3,15.5 L-9.7,14.6 L-10.6,13.3 L-11.3,11.8 L-11.8,10.3 L-12.4,9.1 L-13.4,8.2 L-14.7,7.5 L-16.3,6.7 L-17.8,5.7 L-18.8,4.4 L-19.1,3.0 L-18.7,1.4 L-17.9,0.0 L-16.8,-1.3 L-16.0,-2.5 L-15.7,-3.7 L-15.8,-5.0 L-16.0,-6.6 L-16.2,-8.2 L-15.9,-9.7 L-14.9,-11.0 L-13.5,-11.8 L-11.7,-12.2 L-9.8,-12.3 L-8.2,-12.4 L-6.8,-12.8 L-5.7,-13.6 L-4.5,-14.7 L-3.2,-15.9 L-1.7,-16.8 L-0.0,-17.1 L1.7,-16.8 L3.2,-15.9 L4.5,-14.7 L5.7,-13.6 L6.8,-12.8 L8.2,-12.4 L9.8,-12.3 L11.7,-12.2 L13.5,-11.8 L14.9,-11.0 L15.9,-9.7 L16.2,-8.2 L16.0,-6.6 L15.8,-5.0 L15.7,-3.7 L16.0,-2.5 L16.8,-1.3 L17.8,-0.0Z" fill="#B9844F" stroke="#2A1D14" stroke-width="2" stroke-linejoin="round" stroke-linecap="round"/><g fill="none" stroke="#2A1D14" stroke-opacity=".35" stroke-width="1.5" stroke-linecap="round"><path d="M0,-15 C-3,-5 3,5 0,15"/><path d="M-6,-9 C-11,-6 -11,0 -7,2 C-12,4 -11,10 -6,11"/><path d="M6,-9 C11,-6 11,0 7,2 C12,4 11,10 6,11"/></g></g><g transform="translate(15.6,-130.3) rotate(234) scale(0.95)"><path d="M17.9,0.0 L18.7,1.4 L19.1,3.0 L18.8,4.4 L17.8,5.7 L16.3,6.7 L14.7,7.5 L13.4,8.2 L12.4,9.1 L11.8,10.3 L11.3,11.8 L10.6,13.3 L9.7,14.6 L8.3,15.5 L6.5,15.8 L4.7,15.5 L3.0,14.9 L1.4,14.4 L0.0,14.2 L-1.4,14.4 L-3.0,14.9 L-4.7,15.5 L-6.5,15.8 L-8.3,15.5 L-9.7,14.6 L-10.6,13.3 L-11.3,11.8 L-11.8,10.3 L-12.4,9.1 L-13.4,8.2 L-14.7,7.5 L-16.3,6.7 L-17.8,5.7 L-18.8,4.4 L-19.1,3.0 L-18.7,1.4 L-17.9,0.0 L-16.8,-1.3 L-16.0,-2.5 L-15.7,-3.7 L-15.8,-5.0 L-16.0,-6.6 L-16.2,-8.2 L-15.9,-9.7 L-14.9,-11.0 L-13.5,-11.8 L-11.7,-12.2 L-9.8,-12.3 L-8.2,-12.4 L-6.8,-12.8 L-5.7,-13.6 L-4.5,-14.7 L-3.2,-15.9 L-1.7,-16.8 L-0.0,-17.1 L1.7,-16.8 L3.2,-15.9 L4.5,-14.7 L5.7,-13.6 L6.8,-12.8 L8.2,-12.4 L9.8,-12.3 L11.7,-12.2 L13.5,-11.8 L14.9,-11.0 L15.9,-9.7 L16.2,-8.2 L16.0,-6.6 L15.8,-5.0 L15.7,-3.7 L16.0,-2.5 L16.8,-1.3 L17.8,-0.0Z" fill="#B9844F" stroke="#2A1D14" stroke-width="2" stroke-linejoin="round" stroke-linecap="round"/><g fill="none" stroke="#2A1D14" stroke-opacity=".35" stroke-width="1.5" stroke-linecap="round"><path d="M0,-15 C-3,-5 3,5 0,15"/><path d="M-6,-9 C-11,-6 -11,0 -7,2 C-12,4 -11,10 -6,11"/><path d="M6,-9 C11,-6 11,0 7,2 C12,4 11,10 6,11"/></g></g><g transform="translate(45.5,-130.9) rotate(126) scale(0.95)"><path d="M17.9,0.0 L18.7,1.4 L19.1,3.0 L18.8,4.4 L17.8,5.7 L16.3,6.7 L14.7,7.5 L13.4,8.2 L12.4,9.1 L11.8,10.3 L11.3,11.8 L10.6,13.3 L9.7,14.6 L8.3,15.5 L6.5,15.8 L4.7,15.5 L3.0,14.9 L1.4,14.4 L0.0,14.2 L-1.4,14.4 L-3.0,14.9 L-4.7,15.5 L-6.5,15.8 L-8.3,15.5 L-9.7,14.6 L-10.6,13.3 L-11.3,11.8 L-11.8,10.3 L-12.4,9.1 L-13.4,8.2 L-14.7,7.5 L-16.3,6.7 L-17.8,5.7 L-18.8,4.4 L-19.1,3.0 L-18.7,1.4 L-17.9,0.0 L-16.8,-1.3 L-16.0,-2.5 L-15.7,-3.7 L-15.8,-5.0 L-16.0,-6.6 L-16.2,-8.2 L-15.9,-9.7 L-14.9,-11.0 L-13.5,-11.8 L-11.7,-12.2 L-9.8,-12.3 L-8.2,-12.4 L-6.8,-12.8 L-5.7,-13.6 L-4.5,-14.7 L-3.2,-15.9 L-1.7,-16.8 L-0.0,-17.1 L1.7,-16.8 L3.2,-15.9 L4.5,-14.7 L5.7,-13.6 L6.8,-12.8 L8.2,-12.4 L9.8,-12.3 L11.7,-12.2 L13.5,-11.8 L14.9,-11.0 L15.9,-9.7 L16.2,-8.2 L16.0,-6.6 L15.8,-5.0 L15.7,-3.7 L16.0,-2.5 L16.8,-1.3 L17.8,-0.0Z" fill="#B9844F" stroke="#2A1D14" stroke-width="2" stroke-linejoin="round" stroke-linecap="round"/><g fill="none" stroke="#2A1D14" stroke-opacity=".35" stroke-width="1.5" stroke-linecap="round"><path d="M0,-15 C-3,-5 3,5 0,15"/><path d="M-6,-9 C-11,-6 -11,0 -7,2 C-12,4 -11,10 -6,11"/><path d="M6,-9 C11,-6 11,0 7,2 C12,4 11,10 6,11"/></g></g><g transform="translate(74.3,-132.7) rotate(101) scale(0.95)"><path d="M17.9,0.0 L18.7,1.4 L19.1,3.0 L18.8,4.4 L17.8,5.7 L16.3,6.7 L14.7,7.5 L13.4,8.2 L12.4,9.1 L11.8,10.3 L11.3,11.8 L10.6,13.3 L9.7,14.6 L8.3,15.5 L6.5,15.8 L4.7,15.5 L3.0,14.9 L1.4,14.4 L0.0,14.2 L-1.4,14.4 L-3.0,14.9 L-4.7,15.5 L-6.5,15.8 L-8.3,15.5 L-9.7,14.6 L-10.6,13.3 L-11.3,11.8 L-11.8,10.3 L-12.4,9.1 L-13.4,8.2 L-14.7,7.5 L-16.3,6.7 L-17.8,5.7 L-18.8,4.4 L-19.1,3.0 L-18.7,1.4 L-17.9,0.0 L-16.8,-1.3 L-16.0,-2.5 L-15.7,-3.7 L-15.8,-5.0 L-16.0,-6.6 L-16.2,-8.2 L-15.9,-9.7 L-14.9,-11.0 L-13.5,-11.8 L-11.7,-12.2 L-9.8,-12.3 L-8.2,-12.4 L-6.8,-12.8 L-5.7,-13.6 L-4.5,-14.7 L-3.2,-15.9 L-1.7,-16.8 L-0.0,-17.1 L1.7,-16.8 L3.2,-15.9 L4.5,-14.7 L5.7,-13.6 L6.8,-12.8 L8.2,-12.4 L9.8,-12.3 L11.7,-12.2 L13.5,-11.8 L14.9,-11.0 L15.9,-9.7 L16.2,-8.2 L16.0,-6.6 L15.8,-5.0 L15.7,-3.7 L16.0,-2.5 L16.8,-1.3 L17.8,-0.0Z" fill="#B9844F" stroke="#2A1D14" stroke-width="2" stroke-linejoin="round" stroke-linecap="round"/><g fill="none" stroke="#2A1D14" stroke-opacity=".35" stroke-width="1.5" stroke-linecap="round"><path d="M0,-15 C-3,-5 3,5 0,15"/><path d="M-6,-9 C-11,-6 -11,0 -7,2 C-12,4 -11,10 -6,11"/><path d="M6,-9 C11,-6 11,0 7,2 C12,4 11,10 6,11"/></g></g><g transform="translate(-64.4,-158.9) rotate(140) scale(0.95)"><path d="M17.9,0.0 L18.7,1.4 L19.1,3.0 L18.8,4.4 L17.8,5.7 L16.3,6.7 L14.7,7.5 L13.4,8.2 L12.4,9.1 L11.8,10.3 L11.3,11.8 L10.6,13.3 L9.7,14.6 L8.3,15.5 L6.5,15.8 L4.7,15.5 L3.0,14.9 L1.4,14.4 L0.0,14.2 L-1.4,14.4 L-3.0,14.9 L-4.7,15.5 L-6.5,15.8 L-8.3,15.5 L-9.7,14.6 L-10.6,13.3 L-11.3,11.8 L-11.8,10.3 L-12.4,9.1 L-13.4,8.2 L-14.7,7.5 L-16.3,6.7 L-17.8,5.7 L-18.8,4.4 L-19.1,3.0 L-18.7,1.4 L-17.9,0.0 L-16.8,-1.3 L-16.0,-2.5 L-15.7,-3.7 L-15.8,-5.0 L-16.0,-6.6 L-16.2,-8.2 L-15.9,-9.7 L-14.9,-11.0 L-13.5,-11.8 L-11.7,-12.2 L-9.8,-12.3 L-8.2,-12.4 L-6.8,-12.8 L-5.7,-13.6 L-4.5,-14.7 L-3.2,-15.9 L-1.7,-16.8 L-0.0,-17.1 L1.7,-16.8 L3.2,-15.9 L4.5,-14.7 L5.7,-13.6 L6.8,-12.8 L8.2,-12.4 L9.8,-12.3 L11.7,-12.2 L13.5,-11.8 L14.9,-11.0 L15.9,-9.7 L16.2,-8.2 L16.0,-6.6 L15.8,-5.0 L15.7,-3.7 L16.0,-2.5 L16.8,-1.3 L17.8,-0.0Z" fill="#B9844F" stroke="#2A1D14" stroke-width="2" stroke-linejoin="round" stroke-linecap="round"/><g fill="none" stroke="#2A1D14" stroke-opacity=".35" stroke-width="1.5" stroke-linecap="round"><path d="M0,-15 C-3,-5 3,5 0,15"/><path d="M-6,-9 C-11,-6 -11,0 -7,2 C-12,4 -11,10 -6,11"/><path d="M6,-9 C11,-6 11,0 7,2 C12,4 11,10 6,11"/></g></g><g transform="translate(-35.0,-161.7) rotate(111) scale(0.95)"><path d="M17.9,0.0 L18.7,1.4 L19.1,3.0 L18.8,4.4 L17.8,5.7 L16.3,6.7 L14.7,7.5 L13.4,8.2 L12.4,9.1 L11.8,10.3 L11.3,11.8 L10.6,13.3 L9.7,14.6 L8.3,15.5 L6.5,15.8 L4.7,15.5 L3.0,14.9 L1.4,14.4 L0.0,14.2 L-1.4,14.4 L-3.0,14.9 L-4.7,15.5 L-6.5,15.8 L-8.3,15.5 L-9.7,14.6 L-10.6,13.3 L-11.3,11.8 L-11.8,10.3 L-12.4,9.1 L-13.4,8.2 L-14.7,7.5 L-16.3,6.7 L-17.8,5.7 L-18.8,4.4 L-19.1,3.0 L-18.7,1.4 L-17.9,0.0 L-16.8,-1.3 L-16.0,-2.5 L-15.7,-3.7 L-15.8,-5.0 L-16.0,-6.6 L-16.2,-8.2 L-15.9,-9.7 L-14.9,-11.0 L-13.5,-11.8 L-11.7,-12.2 L-9.8,-12.3 L-8.2,-12.4 L-6.8,-12.8 L-5.7,-13.6 L-4.5,-14.7 L-3.2,-15.9 L-1.7,-16.8 L-0.0,-17.1 L1.7,-16.8 L3.2,-15.9 L4.5,-14.7 L5.7,-13.6 L6.8,-12.8 L8.2,-12.4 L9.8,-12.3 L11.7,-12.2 L13.5,-11.8 L14.9,-11.0 L15.9,-9.7 L16.2,-8.2 L16.0,-6.6 L15.8,-5.0 L15.7,-3.7 L16.0,-2.5 L16.8,-1.3 L17.8,-0.0Z" fill="#B9844F" stroke="#2A1D14" stroke-width="2" stroke-linejoin="round" stroke-linecap="round"/><g fill="none" stroke="#2A1D14" stroke-opacity=".35" stroke-width="1.5" stroke-linecap="round"><path d="M0,-15 C-3,-5 3,5 0,15"/><path d="M-6,-9 C-11,-6 -11,0 -7,2 C-12,4 -11,10 -6,11"/><path d="M6,-9 C11,-6 11,0 7,2 C12,4 11,10 6,11"/></g></g><g transform="translate(-2.7,-159.1) rotate(242) scale(0.95)"><path d="M17.9,0.0 L18.7,1.4 L19.1,3.0 L18.8,4.4 L17.8,5.7 L16.3,6.7 L14.7,7.5 L13.4,8.2 L12.4,9.1 L11.8,10.3 L11.3,11.8 L10.6,13.3 L9.7,14.6 L8.3,15.5 L6.5,15.8 L4.7,15.5 L3.0,14.9 L1.4,14.4 L0.0,14.2 L-1.4,14.4 L-3.0,14.9 L-4.7,15.5 L-6.5,15.8 L-8.3,15.5 L-9.7,14.6 L-10.6,13.3 L-11.3,11.8 L-11.8,10.3 L-12.4,9.1 L-13.4,8.2 L-14.7,7.5 L-16.3,6.7 L-17.8,5.7 L-18.8,4.4 L-19.1,3.0 L-18.7,1.4 L-17.9,0.0 L-16.8,-1.3 L-16.0,-2.5 L-15.7,-3.7 L-15.8,-5.0 L-16.0,-6.6 L-16.2,-8.2 L-15.9,-9.7 L-14.9,-11.0 L-13.5,-11.8 L-11.7,-12.2 L-9.8,-12.3 L-8.2,-12.4 L-6.8,-12.8 L-5.7,-13.6 L-4.5,-14.7 L-3.2,-15.9 L-1.7,-16.8 L-0.0,-17.1 L1.7,-16.8 L3.2,-15.9 L4.5,-14.7 L5.7,-13.6 L6.8,-12.8 L8.2,-12.4 L9.8,-12.3 L11.7,-12.2 L13.5,-11.8 L14.9,-11.0 L15.9,-9.7 L16.2,-8.2 L16.0,-6.6 L15.8,-5.0 L15.7,-3.7 L16.0,-2.5 L16.8,-1.3 L17.8,-0.0Z" fill="#B9844F" stroke="#2A1D14" stroke-width="2" stroke-linejoin="round" stroke-linecap="round"/><g fill="none" stroke="#2A1D14" stroke-opacity=".35" stroke-width="1.5" stroke-linecap="round"><path d="M0,-15 C-3,-5 3,5 0,15"/><path d="M-6,-9 C-11,-6 -11,0 -7,2 C-12,4 -11,10 -6,11"/><path d="M6,-9 C11,-6 11,0 7,2 C12,4 11,10 6,11"/></g></g><g transform="translate(28.5,-160.0) rotate(305) scale(0.95)"><path d="M17.9,0.0 L18.7,1.4 L19.1,3.0 L18.8,4.4 L17.8,5.7 L16.3,6.7 L14.7,7.5 L13.4,8.2 L12.4,9.1 L11.8,10.3 L11.3,11.8 L10.6,13.3 L9.7,14.6 L8.3,15.5 L6.5,15.8 L4.7,15.5 L3.0,14.9 L1.4,14.4 L0.0,14.2 L-1.4,14.4 L-3.0,14.9 L-4.7,15.5 L-6.5,15.8 L-8.3,15.5 L-9.7,14.6 L-10.6,13.3 L-11.3,11.8 L-11.8,10.3 L-12.4,9.1 L-13.4,8.2 L-14.7,7.5 L-16.3,6.7 L-17.8,5.7 L-18.8,4.4 L-19.1,3.0 L-18.7,1.4 L-17.9,0.0 L-16.8,-1.3 L-16.0,-2.5 L-15.7,-3.7 L-15.8,-5.0 L-16.0,-6.6 L-16.2,-8.2 L-15.9,-9.7 L-14.9,-11.0 L-13.5,-11.8 L-11.7,-12.2 L-9.8,-12.3 L-8.2,-12.4 L-6.8,-12.8 L-5.7,-13.6 L-4.5,-14.7 L-3.2,-15.9 L-1.7,-16.8 L-0.0,-17.1 L1.7,-16.8 L3.2,-15.9 L4.5,-14.7 L5.7,-13.6 L6.8,-12.8 L8.2,-12.4 L9.8,-12.3 L11.7,-12.2 L13.5,-11.8 L14.9,-11.0 L15.9,-9.7 L16.2,-8.2 L16.0,-6.6 L15.8,-5.0 L15.7,-3.7 L16.0,-2.5 L16.8,-1.3 L17.8,-0.0Z" fill="#B9844F" stroke="#2A1D14" stroke-width="2" stroke-linejoin="round" stroke-linecap="round"/><g fill="none" stroke="#2A1D14" stroke-opacity=".35" stroke-width="1.5" stroke-linecap="round"><path d="M0,-15 C-3,-5 3,5 0,15"/><path d="M-6,-9 C-11,-6 -11,0 -7,2 C-12,4 -11,10 -6,11"/><path d="M6,-9 C11,-6 11,0 7,2 C12,4 11,10 6,11"/></g></g><g transform="translate(60.8,-158.8) rotate(340) scale(0.95)"><path d="M17.9,0.0 L18.7,1.4 L19.1,3.0 L18.8,4.4 L17.8,5.7 L16.3,6.7 L14.7,7.5 L13.4,8.2 L12.4,9.1 L11.8,10.3 L11.3,11.8 L10.6,13.3 L9.7,14.6 L8.3,15.5 L6.5,15.8 L4.7,15.5 L3.0,14.9 L1.4,14.4 L0.0,14.2 L-1.4,14.4 L-3.0,14.9 L-4.7,15.5 L-6.5,15.8 L-8.3,15.5 L-9.7,14.6 L-10.6,13.3 L-11.3,11.8 L-11.8,10.3 L-12.4,9.1 L-13.4,8.2 L-14.7,7.5 L-16.3,6.7 L-17.8,5.7 L-18.8,4.4 L-19.1,3.0 L-18.7,1.4 L-17.9,0.0 L-16.8,-1.3 L-16.0,-2.5 L-15.7,-3.7 L-15.8,-5.0 L-16.0,-6.6 L-16.2,-8.2 L-15.9,-9.7 L-14.9,-11.0 L-13.5,-11.8 L-11.7,-12.2 L-9.8,-12.3 L-8.2,-12.4 L-6.8,-12.8 L-5.7,-13.6 L-4.5,-14.7 L-3.2,-15.9 L-1.7,-16.8 L-0.0,-17.1 L1.7,-16.8 L3.2,-15.9 L4.5,-14.7 L5.7,-13.6 L6.8,-12.8 L8.2,-12.4 L9.8,-12.3 L11.7,-12.2 L13.5,-11.8 L14.9,-11.0 L15.9,-9.7 L16.2,-8.2 L16.0,-6.6 L15.8,-5.0 L15.7,-3.7 L16.0,-2.5 L16.8,-1.3 L17.8,-0.0Z" fill="#B9844F" stroke="#2A1D14" stroke-width="2" stroke-linejoin="round" stroke-linecap="round"/><g fill="none" stroke="#2A1D14" stroke-opacity=".35" stroke-width="1.5" stroke-linecap="round"><path d="M0,-15 C-3,-5 3,5 0,15"/><path d="M-6,-9 C-11,-6 -11,0 -7,2 C-12,4 -11,10 -6,11"/><path d="M6,-9 C11,-6 11,0 7,2 C12,4 11,10 6,11"/></g></g><g transform="translate(89.4,-161.8) rotate(160) scale(0.95)"><path d="M17.9,0.0 L18.7,1.4 L19.1,3.0 L18.8,4.4 L17.8,5.7 L16.3,6.7 L14.7,7.5 L13.4,8.2 L12.4,9.1 L11.8,10.3 L11.3,11.8 L10.6,13.3 L9.7,14.6 L8.3,15.5 L6.5,15.8 L4.7,15.5 L3.0,14.9 L1.4,14.4 L0.0,14.2 L-1.4,14.4 L-3.0,14.9 L-4.7,15.5 L-6.5,15.8 L-8.3,15.5 L-9.7,14.6 L-10.6,13.3 L-11.3,11.8 L-11.8,10.3 L-12.4,9.1 L-13.4,8.2 L-14.7,7.5 L-16.3,6.7 L-17.8,5.7 L-18.8,4.4 L-19.1,3.0 L-18.7,1.4 L-17.9,0.0 L-16.8,-1.3 L-16.0,-2.5 L-15.7,-3.7 L-15.8,-5.0 L-16.0,-6.6 L-16.2,-8.2 L-15.9,-9.7 L-14.9,-11.0 L-13.5,-11.8 L-11.7,-12.2 L-9.8,-12.3 L-8.2,-12.4 L-6.8,-12.8 L-5.7,-13.6 L-4.5,-14.7 L-3.2,-15.9 L-1.7,-16.8 L-0.0,-17.1 L1.7,-16.8 L3.2,-15.9 L4.5,-14.7 L5.7,-13.6 L6.8,-12.8 L8.2,-12.4 L9.8,-12.3 L11.7,-12.2 L13.5,-11.8 L14.9,-11.0 L15.9,-9.7 L16.2,-8.2 L16.0,-6.6 L15.8,-5.0 L15.7,-3.7 L16.0,-2.5 L16.8,-1.3 L17.8,-0.0Z" fill="#B9844F" stroke="#2A1D14" stroke-width="2" stroke-linejoin="round" stroke-linecap="round"/><g fill="none" stroke="#2A1D14" stroke-opacity=".35" stroke-width="1.5" stroke-linecap="round"><path d="M0,-15 C-3,-5 3,5 0,15"/><path d="M-6,-9 C-11,-6 -11,0 -7,2 C-12,4 -11,10 -6,11"/><path d="M6,-9 C11,-6 11,0 7,2 C12,4 11,10 6,11"/></g></g><g transform="translate(-77.5,-184.6) rotate(203) scale(0.95)"><path d="M17.9,0.0 L18.7,1.4 L19.1,3.0 L18.8,4.4 L17.8,5.7 L16.3,6.7 L14.7,7.5 L13.4,8.2 L12.4,9.1 L11.8,10.3 L11.3,11.8 L10.6,13.3 L9.7,14.6 L8.3,15.5 L6.5,15.8 L4.7,15.5 L3.0,14.9 L1.4,14.4 L0.0,14.2 L-1.4,14.4 L-3.0,14.9 L-4.7,15.5 L-6.5,15.8 L-8.3,15.5 L-9.7,14.6 L-10.6,13.3 L-11.3,11.8 L-11.8,10.3 L-12.4,9.1 L-13.4,8.2 L-14.7,7.5 L-16.3,6.7 L-17.8,5.7 L-18.8,4.4 L-19.1,3.0 L-18.7,1.4 L-17.9,0.0 L-16.8,-1.3 L-16.0,-2.5 L-15.7,-3.7 L-15.8,-5.0 L-16.0,-6.6 L-16.2,-8.2 L-15.9,-9.7 L-14.9,-11.0 L-13.5,-11.8 L-11.7,-12.2 L-9.8,-12.3 L-8.2,-12.4 L-6.8,-12.8 L-5.7,-13.6 L-4.5,-14.7 L-3.2,-15.9 L-1.7,-16.8 L-0.0,-17.1 L1.7,-16.8 L3.2,-15.9 L4.5,-14.7 L5.7,-13.6 L6.8,-12.8 L8.2,-12.4 L9.8,-12.3 L11.7,-12.2 L13.5,-11.8 L14.9,-11.0 L15.9,-9.7 L16.2,-8.2 L16.0,-6.6 L15.8,-5.0 L15.7,-3.7 L16.0,-2.5 L16.8,-1.3 L17.8,-0.0Z" fill="#B9844F" stroke="#2A1D14" stroke-width="2" stroke-linejoin="round" stroke-linecap="round"/><g fill="none" stroke="#2A1D14" stroke-opacity=".35" stroke-width="1.5" stroke-linecap="round"><path d="M0,-15 C-3,-5 3,5 0,15"/><path d="M-6,-9 C-11,-6 -11,0 -7,2 C-12,4 -11,10 -6,11"/><path d="M6,-9 C11,-6 11,0 7,2 C12,4 11,10 6,11"/></g></g><g transform="translate(-44.8,-185.9) rotate(217) scale(0.95)"><path d="M17.9,0.0 L18.7,1.4 L19.1,3.0 L18.8,4.4 L17.8,5.7 L16.3,6.7 L14.7,7.5 L13.4,8.2 L12.4,9.1 L11.8,10.3 L11.3,11.8 L10.6,13.3 L9.7,14.6 L8.3,15.5 L6.5,15.8 L4.7,15.5 L3.0,14.9 L1.4,14.4 L0.0,14.2 L-1.4,14.4 L-3.0,14.9 L-4.7,15.5 L-6.5,15.8 L-8.3,15.5 L-9.7,14.6 L-10.6,13.3 L-11.3,11.8 L-11.8,10.3 L-12.4,9.1 L-13.4,8.2 L-14.7,7.5 L-16.3,6.7 L-17.8,5.7 L-18.8,4.4 L-19.1,3.0 L-18.7,1.4 L-17.9,0.0 L-16.8,-1.3 L-16.0,-2.5 L-15.7,-3.7 L-15.8,-5.0 L-16.0,-6.6 L-16.2,-8.2 L-15.9,-9.7 L-14.9,-11.0 L-13.5,-11.8 L-11.7,-12.2 L-9.8,-12.3 L-8.2,-12.4 L-6.8,-12.8 L-5.7,-13.6 L-4.5,-14.7 L-3.2,-15.9 L-1.7,-16.8 L-0.0,-17.1 L1.7,-16.8 L3.2,-15.9 L4.5,-14.7 L5.7,-13.6 L6.8,-12.8 L8.2,-12.4 L9.8,-12.3 L11.7,-12.2 L13.5,-11.8 L14.9,-11.0 L15.9,-9.7 L16.2,-8.2 L16.0,-6.6 L15.8,-5.0 L15.7,-3.7 L16.0,-2.5 L16.8,-1.3 L17.8,-0.0Z" fill="#B9844F" stroke="#2A1D14" stroke-width="2" stroke-linejoin="round" stroke-linecap="round"/><g fill="none" stroke="#2A1D14" stroke-opacity=".35" stroke-width="1.5" stroke-linecap="round"><path d="M0,-15 C-3,-5 3,5 0,15"/><path d="M-6,-9 C-11,-6 -11,0 -7,2 C-12,4 -11,10 -6,11"/><path d="M6,-9 C11,-6 11,0 7,2 C12,4 11,10 6,11"/></g></g><g transform="translate(-15.8,-184.1) rotate(194) scale(0.95)"><path d="M17.9,0.0 L18.7,1.4 L19.1,3.0 L18.8,4.4 L17.8,5.7 L16.3,6.7 L14.7,7.5 L13.4,8.2 L12.4,9.1 L11.8,10.3 L11.3,11.8 L10.6,13.3 L9.7,14.6 L8.3,15.5 L6.5,15.8 L4.7,15.5 L3.0,14.9 L1.4,14.4 L0.0,14.2 L-1.4,14.4 L-3.0,14.9 L-4.7,15.5 L-6.5,15.8 L-8.3,15.5 L-9.7,14.6 L-10.6,13.3 L-11.3,11.8 L-11.8,10.3 L-12.4,9.1 L-13.4,8.2 L-14.7,7.5 L-16.3,6.7 L-17.8,5.7 L-18.8,4.4 L-19.1,3.0 L-18.7,1.4 L-17.9,0.0 L-16.8,-1.3 L-16.0,-2.5 L-15.7,-3.7 L-15.8,-5.0 L-16.0,-6.6 L-16.2,-8.2 L-15.9,-9.7 L-14.9,-11.0 L-13.5,-11.8 L-11.7,-12.2 L-9.8,-12.3 L-8.2,-12.4 L-6.8,-12.8 L-5.7,-13.6 L-4.5,-14.7 L-3.2,-15.9 L-1.7,-16.8 L-0.0,-17.1 L1.7,-16.8 L3.2,-15.9 L4.5,-14.7 L5.7,-13.6 L6.8,-12.8 L8.2,-12.4 L9.8,-12.3 L11.7,-12.2 L13.5,-11.8 L14.9,-11.0 L15.9,-9.7 L16.2,-8.2 L16.0,-6.6 L15.8,-5.0 L15.7,-3.7 L16.0,-2.5 L16.8,-1.3 L17.8,-0.0Z" fill="#B9844F" stroke="#2A1D14" stroke-width="2" stroke-linejoin="round" stroke-linecap="round"/><g fill="none" stroke="#2A1D14" stroke-opacity=".35" stroke-width="1.5" stroke-linecap="round"><path d="M0,-15 C-3,-5 3,5 0,15"/><path d="M-6,-9 C-11,-6 -11,0 -7,2 C-12,4 -11,10 -6,11"/><path d="M6,-9 C11,-6 11,0 7,2 C12,4 11,10 6,11"/></g></g><g transform="translate(16.3,-187.0) rotate(143) scale(0.95)"><path d="M17.9,0.0 L18.7,1.4 L19.1,3.0 L18.8,4.4 L17.8,5.7 L16.3,6.7 L14.7,7.5 L13.4,8.2 L12.4,9.1 L11.8,10.3 L11.3,11.8 L10.6,13.3 L9.7,14.6 L8.3,15.5 L6.5,15.8 L4.7,15.5 L3.0,14.9 L1.4,14.4 L0.0,14.2 L-1.4,14.4 L-3.0,14.9 L-4.7,15.5 L-6.5,15.8 L-8.3,15.5 L-9.7,14.6 L-10.6,13.3 L-11.3,11.8 L-11.8,10.3 L-12.4,9.1 L-13.4,8.2 L-14.7,7.5 L-16.3,6.7 L-17.8,5.7 L-18.8,4.4 L-19.1,3.0 L-18.7,1.4 L-17.9,0.0 L-16.8,-1.3 L-16.0,-2.5 L-15.7,-3.7 L-15.8,-5.0 L-16.0,-6.6 L-16.2,-8.2 L-15.9,-9.7 L-14.9,-11.0 L-13.5,-11.8 L-11.7,-12.2 L-9.8,-12.3 L-8.2,-12.4 L-6.8,-12.8 L-5.7,-13.6 L-4.5,-14.7 L-3.2,-15.9 L-1.7,-16.8 L-0.0,-17.1 L1.7,-16.8 L3.2,-15.9 L4.5,-14.7 L5.7,-13.6 L6.8,-12.8 L8.2,-12.4 L9.8,-12.3 L11.7,-12.2 L13.5,-11.8 L14.9,-11.0 L15.9,-9.7 L16.2,-8.2 L16.0,-6.6 L15.8,-5.0 L15.7,-3.7 L16.0,-2.5 L16.8,-1.3 L17.8,-0.0Z" fill="#B9844F" stroke="#2A1D14" stroke-width="2" stroke-linejoin="round" stroke-linecap="round"/><g fill="none" stroke="#2A1D14" stroke-opacity=".35" stroke-width="1.5" stroke-linecap="round"><path d="M0,-15 C-3,-5 3,5 0,15"/><path d="M-6,-9 C-11,-6 -11,0 -7,2 C-12,4 -11,10 -6,11"/><path d="M6,-9 C11,-6 11,0 7,2 C12,4 11,10 6,11"/></g></g><g transform="translate(43.0,-183.2) rotate(340) scale(0.95)"><path d="M17.9,0.0 L18.7,1.4 L19.1,3.0 L18.8,4.4 L17.8,5.7 L16.3,6.7 L14.7,7.5 L13.4,8.2 L12.4,9.1 L11.8,10.3 L11.3,11.8 L10.6,13.3 L9.7,14.6 L8.3,15.5 L6.5,15.8 L4.7,15.5 L3.0,14.9 L1.4,14.4 L0.0,14.2 L-1.4,14.4 L-3.0,14.9 L-4.7,15.5 L-6.5,15.8 L-8.3,15.5 L-9.7,14.6 L-10.6,13.3 L-11.3,11.8 L-11.8,10.3 L-12.4,9.1 L-13.4,8.2 L-14.7,7.5 L-16.3,6.7 L-17.8,5.7 L-18.8,4.4 L-19.1,3.0 L-18.7,1.4 L-17.9,0.0 L-16.8,-1.3 L-16.0,-2.5 L-15.7,-3.7 L-15.8,-5.0 L-16.0,-6.6 L-16.2,-8.2 L-15.9,-9.7 L-14.9,-11.0 L-13.5,-11.8 L-11.7,-12.2 L-9.8,-12.3 L-8.2,-12.4 L-6.8,-12.8 L-5.7,-13.6 L-4.5,-14.7 L-3.2,-15.9 L-1.7,-16.8 L-0.0,-17.1 L1.7,-16.8 L3.2,-15.9 L4.5,-14.7 L5.7,-13.6 L6.8,-12.8 L8.2,-12.4 L9.8,-12.3 L11.7,-12.2 L13.5,-11.8 L14.9,-11.0 L15.9,-9.7 L16.2,-8.2 L16.0,-6.6 L15.8,-5.0 L15.7,-3.7 L16.0,-2.5 L16.8,-1.3 L17.8,-0.0Z" fill="#B9844F" stroke="#2A1D14" stroke-width="2" stroke-linejoin="round" stroke-linecap="round"/><g fill="none" stroke="#2A1D14" stroke-opacity=".35" stroke-width="1.5" stroke-linecap="round"><path d="M0,-15 C-3,-5 3,5 0,15"/><path d="M-6,-9 C-11,-6 -11,0 -7,2 C-12,4 -11,10 -6,11"/><path d="M6,-9 C11,-6 11,0 7,2 C12,4 11,10 6,11"/></g></g><g transform="translate(78.2,-185.8) rotate(230) scale(0.95)"><path d="M17.9,0.0 L18.7,1.4 L19.1,3.0 L18.8,4.4 L17.8,5.7 L16.3,6.7 L14.7,7.5 L13.4,8.2 L12.4,9.1 L11.8,10.3 L11.3,11.8 L10.6,13.3 L9.7,14.6 L8.3,15.5 L6.5,15.8 L4.7,15.5 L3.0,14.9 L1.4,14.4 L0.0,14.2 L-1.4,14.4 L-3.0,14.9 L-4.7,15.5 L-6.5,15.8 L-8.3,15.5 L-9.7,14.6 L-10.6,13.3 L-11.3,11.8 L-11.8,10.3 L-12.4,9.1 L-13.4,8.2 L-14.7,7.5 L-16.3,6.7 L-17.8,5.7 L-18.8,4.4 L-19.1,3.0 L-18.7,1.4 L-17.9,0.0 L-16.8,-1.3 L-16.0,-2.5 L-15.7,-3.7 L-15.8,-5.0 L-16.0,-6.6 L-16.2,-8.2 L-15.9,-9.7 L-14.9,-11.0 L-13.5,-11.8 L-11.7,-12.2 L-9.8,-12.3 L-8.2,-12.4 L-6.8,-12.8 L-5.7,-13.6 L-4.5,-14.7 L-3.2,-15.9 L-1.7,-16.8 L-0.0,-17.1 L1.7,-16.8 L3.2,-15.9 L4.5,-14.7 L5.7,-13.6 L6.8,-12.8 L8.2,-12.4 L9.8,-12.3 L11.7,-12.2 L13.5,-11.8 L14.9,-11.0 L15.9,-9.7 L16.2,-8.2 L16.0,-6.6 L15.8,-5.0 L15.7,-3.7 L16.0,-2.5 L16.8,-1.3 L17.8,-0.0Z" fill="#B9844F" stroke="#2A1D14" stroke-width="2" stroke-linejoin="round" stroke-linecap="round"/><g fill="none" stroke="#2A1D14" stroke-opacity=".35" stroke-width="1.5" stroke-linecap="round"><path d="M0,-15 C-3,-5 3,5 0,15"/><path d="M-6,-9 C-11,-6 -11,0 -7,2 C-12,4 -11,10 -6,11"/><path d="M6,-9 C11,-6 11,0 7,2 C12,4 11,10 6,11"/></g></g></g>
  <rect x="-96" y="-206" width="192" height="206" rx="26" fill="#FFFFFF" fill-opacity=".18" stroke="#2A1D14" stroke-width="3" stroke-linejoin="round" stroke-linecap="round"/>
  <path d="M-78,-186 L-78,-40" stroke="#fff" stroke-opacity=".7" stroke-width="7" stroke-linecap="round"/>
  <rect x="-84" y="-246" width="168" height="44" rx="12" fill="#5B3A2E" stroke="#2A1D14" stroke-width="3" stroke-linejoin="round" stroke-linecap="round"/>
  <path d="M-84,-224 L84,-224" stroke="#452B22" stroke-width="10"/>
  <rect x="-84" y="-246" width="168" height="44" rx="12" fill="none" stroke="#2A1D14" stroke-width="3" stroke-linejoin="round" stroke-linecap="round"/>
  <rect x="-70" y="-150" width="140" height="78" rx="14" fill="#FBF5EC" stroke="#2A1D14" stroke-width="2.6" stroke-linejoin="round" stroke-linecap="round"/>
  <rect x="-70" y="-150" width="140" height="20" rx="10" fill="#5B3A2E"/>
  <rect x="-70" y="-140" width="140" height="10" fill="#5B3A2E"/>
  <rect x="-70" y="-150" width="140" height="78" rx="14" fill="none" stroke="#2A1D14" stroke-width="2.6" stroke-linejoin="round" stroke-linecap="round"/>
  <text x="0" y="-135" text-anchor="middle" font-family="'Bricolage Grotesque','DM Sans',sans-serif"
        font-weight="700" font-size="12" letter-spacing="1" fill="#E9C88E">C4N</text>
  <g transform="translate(-24,-100) scale(1.05)"><path d="M17.9,0.0 L18.7,1.4 L19.1,3.0 L18.8,4.4 L17.8,5.7 L16.3,6.7 L14.7,7.5 L13.4,8.2 L12.4,9.1 L11.8,10.3 L11.3,11.8 L10.6,13.3 L9.7,14.6 L8.3,15.5 L6.5,15.8 L4.7,15.5 L3.0,14.9 L1.4,14.4 L0.0,14.2 L-1.4,14.4 L-3.0,14.9 L-4.7,15.5 L-6.5,15.8 L-8.3,15.5 L-9.7,14.6 L-10.6,13.3 L-11.3,11.8 L-11.8,10.3 L-12.4,9.1 L-13.4,8.2 L-14.7,7.5 L-16.3,6.7 L-17.8,5.7 L-18.8,4.4 L-19.1,3.0 L-18.7,1.4 L-17.9,0.0 L-16.8,-1.3 L-16.0,-2.5 L-15.7,-3.7 L-15.8,-5.0 L-16.0,-6.6 L-16.2,-8.2 L-15.9,-9.7 L-14.9,-11.0 L-13.5,-11.8 L-11.7,-12.2 L-9.8,-12.3 L-8.2,-12.4 L-6.8,-12.8 L-5.7,-13.6 L-4.5,-14.7 L-3.2,-15.9 L-1.7,-16.8 L-0.0,-17.1 L1.7,-16.8 L3.2,-15.9 L4.5,-14.7 L5.7,-13.6 L6.8,-12.8 L8.2,-12.4 L9.8,-12.3 L11.7,-12.2 L13.5,-11.8 L14.9,-11.0 L15.9,-9.7 L16.2,-8.2 L16.0,-6.6 L15.8,-5.0 L15.7,-3.7 L16.0,-2.5 L16.8,-1.3 L17.8,-0.0Z" fill="#B9844F" stroke="#2A1D14" stroke-width="2" stroke-linejoin="round" stroke-linecap="round"/><g fill="none" stroke="#2A1D14" stroke-opacity=".35" stroke-width="1.5" stroke-linecap="round"><path d="M0,-15 C-3,-5 3,5 0,15"/><path d="M-6,-9 C-11,-6 -11,0 -7,2 C-12,4 -11,10 -6,11"/><path d="M6,-9 C11,-6 11,0 7,2 C12,4 11,10 6,11"/></g></g>
  <g transform="translate(26,-100)">
    <circle r="17" fill="#FFFFFF" stroke="#2A1D14" stroke-width="2.2" stroke-linejoin="round" stroke-linecap="round"/>
    <g transform="scale(.85)"><path d="M-7,7 C-8,-3 -1,-9 8,-8 C9,1 3,8 -7,7Z" fill="#8DB04A" stroke="#2A1D14" stroke-width="2" stroke-linejoin="round"/><path d="M-7,7 L3,-3" fill="none" stroke="#2A1D14" stroke-width="2" stroke-linecap="round" stroke-linejoin="round"/></g>
  </g>
</g>
<g transform="translate(93.1,296.4) rotate(27) scale(0.94)"><path d="M17.9,0.0 L18.7,1.4 L19.1,3.0 L18.8,4.4 L17.8,5.7 L16.3,6.7 L14.7,7.5 L13.4,8.2 L12.4,9.1 L11.8,10.3 L11.3,11.8 L10.6,13.3 L9.7,14.6 L8.3,15.5 L6.5,15.8 L4.7,15.5 L3.0,14.9 L1.4,14.4 L0.0,14.2 L-1.4,14.4 L-3.0,14.9 L-4.7,15.5 L-6.5,15.8 L-8.3,15.5 L-9.7,14.6 L-10.6,13.3 L-11.3,11.8 L-11.8,10.3 L-12.4,9.1 L-13.4,8.2 L-14.7,7.5 L-16.3,6.7 L-17.8,5.7 L-18.8,4.4 L-19.1,3.0 L-18.7,1.4 L-17.9,0.0 L-16.8,-1.3 L-16.0,-2.5 L-15.7,-3.7 L-15.8,-5.0 L-16.0,-6.6 L-16.2,-8.2 L-15.9,-9.7 L-14.9,-11.0 L-13.5,-11.8 L-11.7,-12.2 L-9.8,-12.3 L-8.2,-12.4 L-6.8,-12.8 L-5.7,-13.6 L-4.5,-14.7 L-3.2,-15.9 L-1.7,-16.8 L-0.0,-17.1 L1.7,-16.8 L3.2,-15.9 L4.5,-14.7 L5.7,-13.6 L6.8,-12.8 L8.2,-12.4 L9.8,-12.3 L11.7,-12.2 L13.5,-11.8 L14.9,-11.0 L15.9,-9.7 L16.2,-8.2 L16.0,-6.6 L15.8,-5.0 L15.7,-3.7 L16.0,-2.5 L16.8,-1.3 L17.8,-0.0Z" fill="#B9844F" stroke="#2A1D14" stroke-width="2" stroke-linejoin="round" stroke-linecap="round"/><g fill="none" stroke="#2A1D14" stroke-opacity=".35" stroke-width="1.5" stroke-linecap="round"><path d="M0,-15 C-3,-5 3,5 0,15"/><path d="M-6,-9 C-11,-6 -11,0 -7,2 C-12,4 -11,10 -6,11"/><path d="M6,-9 C11,-6 11,0 7,2 C12,4 11,10 6,11"/></g></g><g transform="translate(122.6,329.1) rotate(36) scale(1.13)"><path d="M17.9,0.0 L18.7,1.4 L19.1,3.0 L18.8,4.4 L17.8,5.7 L16.3,6.7 L14.7,7.5 L13.4,8.2 L12.4,9.1 L11.8,10.3 L11.3,11.8 L10.6,13.3 L9.7,14.6 L8.3,15.5 L6.5,15.8 L4.7,15.5 L3.0,14.9 L1.4,14.4 L0.0,14.2 L-1.4,14.4 L-3.0,14.9 L-4.7,15.5 L-6.5,15.8 L-8.3,15.5 L-9.7,14.6 L-10.6,13.3 L-11.3,11.8 L-11.8,10.3 L-12.4,9.1 L-13.4,8.2 L-14.7,7.5 L-16.3,6.7 L-17.8,5.7 L-18.8,4.4 L-19.1,3.0 L-18.7,1.4 L-17.9,0.0 L-16.8,-1.3 L-16.0,-2.5 L-15.7,-3.7 L-15.8,-5.0 L-16.0,-6.6 L-16.2,-8.2 L-15.9,-9.7 L-14.9,-11.0 L-13.5,-11.8 L-11.7,-12.2 L-9.8,-12.3 L-8.2,-12.4 L-6.8,-12.8 L-5.7,-13.6 L-4.5,-14.7 L-3.2,-15.9 L-1.7,-16.8 L-0.0,-17.1 L1.7,-16.8 L3.2,-15.9 L4.5,-14.7 L5.7,-13.6 L6.8,-12.8 L8.2,-12.4 L9.8,-12.3 L11.7,-12.2 L13.5,-11.8 L14.9,-11.0 L15.9,-9.7 L16.2,-8.2 L16.0,-6.6 L15.8,-5.0 L15.7,-3.7 L16.0,-2.5 L16.8,-1.3 L17.8,-0.0Z" fill="#B9844F" stroke="#2A1D14" stroke-width="2" stroke-linejoin="round" stroke-linecap="round"/><g fill="none" stroke="#2A1D14" stroke-opacity=".35" stroke-width="1.5" stroke-linecap="round"><path d="M0,-15 C-3,-5 3,5 0,15"/><path d="M-6,-9 C-11,-6 -11,0 -7,2 C-12,4 -11,10 -6,11"/><path d="M6,-9 C11,-6 11,0 7,2 C12,4 11,10 6,11"/></g></g><g transform="translate(67.8,339.2) rotate(-24) scale(0.96)"><path d="M17.9,0.0 L18.7,1.4 L19.1,3.0 L18.8,4.4 L17.8,5.7 L16.3,6.7 L14.7,7.5 L13.4,8.2 L12.4,9.1 L11.8,10.3 L11.3,11.8 L10.6,13.3 L9.7,14.6 L8.3,15.5 L6.5,15.8 L4.7,15.5 L3.0,14.9 L1.4,14.4 L0.0,14.2 L-1.4,14.4 L-3.0,14.9 L-4.7,15.5 L-6.5,15.8 L-8.3,15.5 L-9.7,14.6 L-10.6,13.3 L-11.3,11.8 L-11.8,10.3 L-12.4,9.1 L-13.4,8.2 L-14.7,7.5 L-16.3,6.7 L-17.8,5.7 L-18.8,4.4 L-19.1,3.0 L-18.7,1.4 L-17.9,0.0 L-16.8,-1.3 L-16.0,-2.5 L-15.7,-3.7 L-15.8,-5.0 L-16.0,-6.6 L-16.2,-8.2 L-15.9,-9.7 L-14.9,-11.0 L-13.5,-11.8 L-11.7,-12.2 L-9.8,-12.3 L-8.2,-12.4 L-6.8,-12.8 L-5.7,-13.6 L-4.5,-14.7 L-3.2,-15.9 L-1.7,-16.8 L-0.0,-17.1 L1.7,-16.8 L3.2,-15.9 L4.5,-14.7 L5.7,-13.6 L6.8,-12.8 L8.2,-12.4 L9.8,-12.3 L11.7,-12.2 L13.5,-11.8 L14.9,-11.0 L15.9,-9.7 L16.2,-8.2 L16.0,-6.6 L15.8,-5.0 L15.7,-3.7 L16.0,-2.5 L16.8,-1.3 L17.8,-0.0Z" fill="#B9844F" stroke="#2A1D14" stroke-width="2" stroke-linejoin="round" stroke-linecap="round"/><g fill="none" stroke="#2A1D14" stroke-opacity=".35" stroke-width="1.5" stroke-linecap="round"><path d="M0,-15 C-3,-5 3,5 0,15"/><path d="M-6,-9 C-11,-6 -11,0 -7,2 C-12,4 -11,10 -6,11"/><path d="M6,-9 C11,-6 11,0 7,2 C12,4 11,10 6,11"/></g></g><g transform="translate(388.7,305.1) rotate(32) scale(0.99)"><path d="M17.9,0.0 L18.7,1.4 L19.1,3.0 L18.8,4.4 L17.8,5.7 L16.3,6.7 L14.7,7.5 L13.4,8.2 L12.4,9.1 L11.8,10.3 L11.3,11.8 L10.6,13.3 L9.7,14.6 L8.3,15.5 L6.5,15.8 L4.7,15.5 L3.0,14.9 L1.4,14.4 L0.0,14.2 L-1.4,14.4 L-3.0,14.9 L-4.7,15.5 L-6.5,15.8 L-8.3,15.5 L-9.7,14.6 L-10.6,13.3 L-11.3,11.8 L-11.8,10.3 L-12.4,9.1 L-13.4,8.2 L-14.7,7.5 L-16.3,6.7 L-17.8,5.7 L-18.8,4.4 L-19.1,3.0 L-18.7,1.4 L-17.9,0.0 L-16.8,-1.3 L-16.0,-2.5 L-15.7,-3.7 L-15.8,-5.0 L-16.0,-6.6 L-16.2,-8.2 L-15.9,-9.7 L-14.9,-11.0 L-13.5,-11.8 L-11.7,-12.2 L-9.8,-12.3 L-8.2,-12.4 L-6.8,-12.8 L-5.7,-13.6 L-4.5,-14.7 L-3.2,-15.9 L-1.7,-16.8 L-0.0,-17.1 L1.7,-16.8 L3.2,-15.9 L4.5,-14.7 L5.7,-13.6 L6.8,-12.8 L8.2,-12.4 L9.8,-12.3 L11.7,-12.2 L13.5,-11.8 L14.9,-11.0 L15.9,-9.7 L16.2,-8.2 L16.0,-6.6 L15.8,-5.0 L15.7,-3.7 L16.0,-2.5 L16.8,-1.3 L17.8,-0.0Z" fill="#B9844F" stroke="#2A1D14" stroke-width="2" stroke-linejoin="round" stroke-linecap="round"/><g fill="none" stroke="#2A1D14" stroke-opacity=".35" stroke-width="1.5" stroke-linecap="round"><path d="M0,-15 C-3,-5 3,5 0,15"/><path d="M-6,-9 C-11,-6 -11,0 -7,2 C-12,4 -11,10 -6,11"/><path d="M6,-9 C11,-6 11,0 7,2 C12,4 11,10 6,11"/></g></g><g transform="translate(363.2,332.1) rotate(-3) scale(1.07)"><path d="M17.9,0.0 L18.7,1.4 L19.1,3.0 L18.8,4.4 L17.8,5.7 L16.3,6.7 L14.7,7.5 L13.4,8.2 L12.4,9.1 L11.8,10.3 L11.3,11.8 L10.6,13.3 L9.7,14.6 L8.3,15.5 L6.5,15.8 L4.7,15.5 L3.0,14.9 L1.4,14.4 L0.0,14.2 L-1.4,14.4 L-3.0,14.9 L-4.7,15.5 L-6.5,15.8 L-8.3,15.5 L-9.7,14.6 L-10.6,13.3 L-11.3,11.8 L-11.8,10.3 L-12.4,9.1 L-13.4,8.2 L-14.7,7.5 L-16.3,6.7 L-17.8,5.7 L-18.8,4.4 L-19.1,3.0 L-18.7,1.4 L-17.9,0.0 L-16.8,-1.3 L-16.0,-2.5 L-15.7,-3.7 L-15.8,-5.0 L-16.0,-6.6 L-16.2,-8.2 L-15.9,-9.7 L-14.9,-11.0 L-13.5,-11.8 L-11.7,-12.2 L-9.8,-12.3 L-8.2,-12.4 L-6.8,-12.8 L-5.7,-13.6 L-4.5,-14.7 L-3.2,-15.9 L-1.7,-16.8 L-0.0,-17.1 L1.7,-16.8 L3.2,-15.9 L4.5,-14.7 L5.7,-13.6 L6.8,-12.8 L8.2,-12.4 L9.8,-12.3 L11.7,-12.2 L13.5,-11.8 L14.9,-11.0 L15.9,-9.7 L16.2,-8.2 L16.0,-6.6 L15.8,-5.0 L15.7,-3.7 L16.0,-2.5 L16.8,-1.3 L17.8,-0.0Z" fill="#B9844F" stroke="#2A1D14" stroke-width="2" stroke-linejoin="round" stroke-linecap="round"/><g fill="none" stroke="#2A1D14" stroke-opacity=".35" stroke-width="1.5" stroke-linecap="round"><path d="M0,-15 C-3,-5 3,5 0,15"/><path d="M-6,-9 C-11,-6 -11,0 -7,2 C-12,4 -11,10 -6,11"/><path d="M6,-9 C11,-6 11,0 7,2 C12,4 11,10 6,11"/></g></g><g transform="translate(416.4,332.7) rotate(-12) scale(0.97)"><path d="M17.9,0.0 L18.7,1.4 L19.1,3.0 L18.8,4.4 L17.8,5.7 L16.3,6.7 L14.7,7.5 L13.4,8.2 L12.4,9.1 L11.8,10.3 L11.3,11.8 L10.6,13.3 L9.7,14.6 L8.3,15.5 L6.5,15.8 L4.7,15.5 L3.0,14.9 L1.4,14.4 L0.0,14.2 L-1.4,14.4 L-3.0,14.9 L-4.7,15.5 L-6.5,15.8 L-8.3,15.5 L-9.7,14.6 L-10.6,13.3 L-11.3,11.8 L-11.8,10.3 L-12.4,9.1 L-13.4,8.2 L-14.7,7.5 L-16.3,6.7 L-17.8,5.7 L-18.8,4.4 L-19.1,3.0 L-18.7,1.4 L-17.9,0.0 L-16.8,-1.3 L-16.0,-2.5 L-15.7,-3.7 L-15.8,-5.0 L-16.0,-6.6 L-16.2,-8.2 L-15.9,-9.7 L-14.9,-11.0 L-13.5,-11.8 L-11.7,-12.2 L-9.8,-12.3 L-8.2,-12.4 L-6.8,-12.8 L-5.7,-13.6 L-4.5,-14.7 L-3.2,-15.9 L-1.7,-16.8 L-0.0,-17.1 L1.7,-16.8 L3.2,-15.9 L4.5,-14.7 L5.7,-13.6 L6.8,-12.8 L8.2,-12.4 L9.8,-12.3 L11.7,-12.2 L13.5,-11.8 L14.9,-11.0 L15.9,-9.7 L16.2,-8.2 L16.0,-6.6 L15.8,-5.0 L15.7,-3.7 L16.0,-2.5 L16.8,-1.3 L17.8,-0.0Z" fill="#B9844F" stroke="#2A1D14" stroke-width="2" stroke-linejoin="round" stroke-linecap="round"/><g fill="none" stroke="#2A1D14" stroke-opacity=".35" stroke-width="1.5" stroke-linecap="round"><path d="M0,-15 C-3,-5 3,5 0,15"/><path d="M-6,-9 C-11,-6 -11,0 -7,2 C-12,4 -11,10 -6,11"/><path d="M6,-9 C11,-6 11,0 7,2 C12,4 11,10 6,11"/></g></g>
</svg>
